<?xml version="1.0" encoding="utf-8"?>
<!-- Generator: Adobe Illustrator 27.5.0, SVG Export Plug-In . SVG Version: 6.00 Build 0)  -->
<svg version="1.1" xmlns="http://www.w3.org/2000/svg" xmlns:xlink="http://www.w3.org/1999/xlink" x="0px" y="0px"
	 viewBox="0 0 500 500" style="enable-background:new 0 0 500 500;" xml:space="preserve">
<g id="Background_Simple">
	<path style="fill:#FFE6DE;" d="M435.905,330.592c-37.256,131.515-139.107,131.747-214.27,130.071
		c-93.442-2.084-178.177-81.294-178.177-182.395S87.511,95.592,211.575,95.592S490.464,137.998,435.905,330.592z"/>
	<g>
		<path style="fill:#FFFFFF;" d="M147.241,223.789c-0.507-6.443-0.771-13.153-3.803-18.862c-3.561-6.704-10.983-11.128-18.551-11.24
			c-15.985-0.547-24.999,0.216-40.461,3.22c-4.063,0.79-9.324,3.339-11.942,6.546c-2.325,2.848-4.292,6.373-4.651,10.032
			c-0.962,9.794,0.29,19.8,3.635,29.055c1.757,4.86,4.175,9.636,8.049,13.056c4.392,3.877,10.294,5.669,16.128,6.209
			c9.493,0.879,18.964-1.268,28.392-2.679c5.832-0.874,12.051-1.609,16.638-5.315c4.159-3.36,6.288-8.712,6.951-14.017
			C148.291,234.487,147.661,229.119,147.241,223.789z"/>
		<g>
			<path style="fill:#FFE6DE;" d="M102.299,217.281c-0.572,0.09-1.142-0.039-1.71-0.389c-0.568-0.351-0.904-0.853-1.008-1.511
				c-0.041-0.258-0.043-0.499-0.005-0.726c0.038-0.226,0.146-0.513,0.325-0.863c0.64-1.333,1.708-2.453,3.206-3.365
				c1.497-0.911,3.177-1.498,5.041-1.764c1.892-0.269,3.606-0.136,5.141,0.397c1.535,0.535,2.812,1.432,3.832,2.692
				c1.019,1.261,1.676,2.819,1.97,4.679c0.303,1.916,0.162,3.762-0.421,5.54c-0.584,1.778-1.504,3.286-2.759,4.525
				c-1.255,1.24-2.731,2.052-4.429,2.437l0.298,2.721c0.093,0.778-0.076,1.376-0.509,1.795c-0.432,0.42-0.99,0.686-1.677,0.794
				c-0.682,0.136-1.29,0.042-1.825-0.284c-0.535-0.326-0.84-0.906-0.913-1.745l-0.465-4.061c-0.07-0.809,0.065-1.483,0.406-2.021
				c0.339-0.537,1.01-0.885,2.012-1.043c1.115-0.176,2.089-0.6,2.92-1.273s1.451-1.533,1.857-2.58
				c0.406-1.046,0.507-2.213,0.304-3.5c-0.171-1.086-0.516-1.962-1.03-2.629c-0.517-0.665-1.154-1.136-1.916-1.412
				c-0.762-0.275-1.614-0.339-2.558-0.19c-1.116,0.175-2.04,0.491-2.774,0.943c-0.735,0.453-1.315,0.992-1.745,1.618
				c-0.237,0.36-0.471,0.639-0.703,0.836C102.929,217.101,102.642,217.227,102.299,217.281z M109.402,236.648
				c0.457-0.072,0.989-0.047,1.595,0.078c0.605,0.123,1.162,0.395,1.667,0.813c0.507,0.419,0.826,1.057,0.962,1.915
				c0.127,0.801,0.041,1.466-0.255,1.996c-0.298,0.531-0.688,0.936-1.171,1.218c-0.484,0.281-0.968,0.461-1.454,0.538
				c-0.916,0.145-1.782-0.048-2.598-0.579c-0.816-0.531-1.295-1.24-1.434-2.125c-0.078-0.867,0.107-1.688,0.557-2.463
				C107.719,237.265,108.43,236.802,109.402,236.648z"/>
		</g>
	</g>
	<g>
		<path style="fill:#FFFFFF;" d="M416.571,297.578c-0.342-6.581-0.429-13.427-3.364-19.327c-3.447-6.93-10.892-11.64-18.603-11.959
			c-16.277-0.991-25.485-0.458-41.325,2.184c-4.163,0.694-9.594,3.151-12.349,6.348c-2.447,2.839-4.547,6.379-5.012,10.098
			c-1.246,9.956-0.242,20.188,2.917,29.712c1.658,5.001,3.994,9.935,7.85,13.525c4.371,4.07,10.339,6.057,16.269,6.765
			c9.651,1.153,19.363-0.777,29.01-1.961c5.968-0.732,12.326-1.313,17.102-4.966c4.33-3.311,6.645-8.709,7.465-14.098
			C417.351,308.511,416.854,303.022,416.571,297.578z"/>
		<g>
			<path style="fill:#FFE6DE;" d="M370.935,289.832c-0.585,0.077-1.163-0.071-1.732-0.443c-0.57-0.372-0.898-0.894-0.986-1.568
				c-0.035-0.263-0.03-0.509,0.014-0.739c0.045-0.229,0.163-0.519,0.356-0.872c0.687-1.34,1.808-2.453,3.358-3.341
				c1.551-0.887,3.28-1.44,5.186-1.661c1.936-0.222,3.68-0.041,5.229,0.546c1.55,0.585,2.828,1.535,3.832,2.846
				c1.006,1.313,1.633,2.921,1.882,4.823c0.256,1.961,0.063,3.84-0.58,5.635c-0.644,1.796-1.622,3.31-2.935,4.538
				c-1.312,1.228-2.839,2.016-4.581,2.362l0.231,2.783c0.075,0.795-0.115,1.398-0.567,1.816c-0.451,0.416-1.028,0.671-1.73,0.762
				c-0.699,0.122-1.316,0.009-1.853-0.338c-0.537-0.346-0.833-0.947-0.884-1.805l-0.366-4.149c-0.047-0.826,0.109-1.51,0.47-2.048
				c0.362-0.539,1.054-0.876,2.079-1.009c1.141-0.15,2.145-0.556,3.011-1.22c0.865-0.664,1.519-1.523,1.962-2.58
				c0.442-1.054,0.578-2.241,0.406-3.558c-0.146-1.111-0.474-2.016-0.98-2.707c-0.508-0.693-1.145-1.191-1.913-1.492
				c-0.77-0.302-1.636-0.389-2.602-0.263c-1.142,0.149-2.094,0.445-2.854,0.886c-0.761,0.442-1.369,0.976-1.822,1.6
				c-0.251,0.361-0.498,0.639-0.739,0.834C371.584,289.665,371.287,289.785,370.935,289.832z M377.65,309.763
				c0.469-0.061,1.009-0.021,1.623,0.123c0.615,0.142,1.174,0.434,1.678,0.874c0.503,0.441,0.812,1.099,0.927,1.978
				c0.108,0.819,0.003,1.496-0.315,2.028c-0.318,0.533-0.726,0.936-1.226,1.21c-0.499,0.274-0.999,0.443-1.496,0.509
				c-0.937,0.122-1.815-0.097-2.632-0.661c-0.818-0.562-1.286-1.298-1.404-2.204c-0.057-0.886,0.155-1.717,0.633-2.495
				C375.918,310.346,376.655,309.892,377.65,309.763z"/>
		</g>
	</g>
	<g>
		<g>
			<path style="fill:#FFFFFF;" d="M365.548,365.839c-0.512-0.205-0.914-0.59-1.207-1.152c-0.294-0.563-0.323-1.14-0.087-1.728
				c0.092-0.23,0.21-0.428,0.349-0.594c0.141-0.166,0.37-0.349,0.688-0.548c1.173-0.777,2.593-1.171,4.261-1.184
				c1.668-0.014,3.328,0.327,4.981,1.019c1.677,0.703,3.013,1.647,4.006,2.833c0.993,1.186,1.6,2.542,1.818,4.069
				c0.217,1.528-0.006,3.124-0.674,4.785c-0.688,1.714-1.704,3.154-3.048,4.321c-1.345,1.169-2.831,1.952-4.463,2.352
				c-1.63,0.4-3.233,0.343-4.807-0.171l-1.085,2.37c-0.304,0.68-0.733,1.087-1.292,1.219c-0.558,0.133-1.143,0.076-1.757-0.171
				c-0.625-0.221-1.076-0.595-1.353-1.123c-0.278-0.527-0.243-1.15,0.107-1.873l1.6-3.544c0.339-0.695,0.777-1.179,1.318-1.452
				c0.539-0.274,1.256-0.23,2.152,0.13c0.997,0.4,2,0.528,3.009,0.383c1.009-0.144,1.933-0.545,2.777-1.201
				c0.842-0.656,1.494-1.561,1.956-2.711c0.39-0.972,0.537-1.856,0.441-2.652c-0.097-0.796-0.389-1.491-0.876-2.088
				c-0.488-0.596-1.155-1.064-1.999-1.403c-0.997-0.4-1.906-0.595-2.728-0.583c-0.822,0.012-1.56,0.168-2.215,0.469
				c-0.367,0.18-0.696,0.293-0.982,0.341C366.152,365.999,365.855,365.961,365.548,365.839z M361.902,385.129
				c0.41,0.165,0.831,0.446,1.266,0.842c0.434,0.398,0.756,0.89,0.965,1.479c0.209,0.589,0.159,1.266-0.149,2.033
				c-0.287,0.716-0.682,1.219-1.183,1.507c-0.503,0.289-1.019,0.43-1.551,0.425c-0.532-0.006-1.015-0.096-1.449-0.27
				c-0.819-0.329-1.434-0.908-1.841-1.741c-0.409-0.832-0.453-1.644-0.134-2.437c0.357-0.746,0.91-1.327,1.656-1.74
				C360.226,384.813,361.033,384.78,361.902,385.129z"/>
		</g>
	</g>
	<g>
		<g>
			<path style="fill:#FFFFFF;" d="M184.588,131.81c-0.512-0.206-0.914-0.59-1.207-1.152c-0.294-0.563-0.323-1.14-0.087-1.728
				c0.092-0.23,0.21-0.428,0.349-0.594c0.141-0.166,0.37-0.349,0.688-0.548c1.173-0.777,2.593-1.171,4.261-1.184
				c1.668-0.014,3.328,0.327,4.981,1.019c1.677,0.703,3.013,1.647,4.006,2.833c0.993,1.186,1.6,2.542,1.818,4.07
				c0.217,1.528-0.006,3.124-0.674,4.785c-0.688,1.714-1.704,3.154-3.048,4.321c-1.345,1.169-2.832,1.952-4.463,2.352
				c-1.63,0.4-3.233,0.343-4.807-0.171l-1.084,2.37c-0.304,0.68-0.733,1.087-1.292,1.219c-0.558,0.133-1.143,0.076-1.757-0.171
				c-0.625-0.221-1.076-0.595-1.353-1.123c-0.278-0.527-0.243-1.15,0.107-1.873l1.6-3.544c0.339-0.695,0.777-1.179,1.318-1.452
				c0.539-0.273,1.256-0.23,2.152,0.13c0.997,0.4,2,0.528,3.009,0.383c1.008-0.144,1.933-0.545,2.777-1.201
				c0.842-0.656,1.494-1.561,1.956-2.71c0.39-0.972,0.537-1.856,0.441-2.652c-0.097-0.796-0.389-1.491-0.876-2.088
				c-0.488-0.596-1.155-1.064-1.999-1.403c-0.997-0.4-1.906-0.595-2.728-0.583c-0.822,0.012-1.559,0.168-2.215,0.469
				c-0.368,0.18-0.696,0.293-0.982,0.341C185.192,131.971,184.895,131.933,184.588,131.81z M180.942,151.1
				c0.41,0.165,0.831,0.446,1.266,0.842c0.434,0.398,0.756,0.89,0.965,1.479c0.209,0.589,0.159,1.266-0.149,2.034
				c-0.287,0.716-0.682,1.219-1.183,1.507c-0.503,0.289-1.019,0.43-1.551,0.425c-0.532-0.006-1.015-0.096-1.449-0.27
				c-0.819-0.329-1.434-0.908-1.841-1.741c-0.409-0.832-0.453-1.644-0.134-2.437c0.357-0.746,0.91-1.327,1.656-1.74
				C179.266,150.785,180.073,150.752,180.942,151.1z"/>
		</g>
	</g>
	<g>
		<g>
			<path style="fill:#FFFFFF;" d="M120.249,383.933c-0.56,0.402-1.237,0.569-2.026,0.501c-0.792-0.067-1.42-0.424-1.883-1.068
				c-0.181-0.252-0.312-0.508-0.393-0.767c-0.081-0.26-0.12-0.625-0.118-1.094c-0.033-1.76,0.504-3.524,1.609-5.294
				c1.105-1.771,2.578-3.295,4.418-4.576c1.868-1.299,3.761-2.076,5.679-2.329c1.919-0.253,3.758,0.016,5.517,0.81
				c1.759,0.796,3.294,2.102,4.601,3.922c1.349,1.876,2.187,3.916,2.517,6.118c0.332,2.204,0.161,4.3-0.511,6.29
				c-0.671,1.989-1.806,3.644-3.406,4.962l1.775,2.735c0.514,0.777,0.656,1.504,0.42,2.182c-0.234,0.678-0.687,1.258-1.359,1.741
				c-0.653,0.511-1.35,0.737-2.093,0.676c-0.743-0.06-1.378-0.515-1.906-1.369l-2.668-4.067c-0.506-0.824-0.724-1.612-0.649-2.366
				c0.073-0.753,0.6-1.481,1.581-2.185c1.091-0.784,1.899-1.758,2.423-2.92c0.524-1.162,0.722-2.407,0.594-3.739
				c-0.128-1.329-0.645-2.625-1.55-3.884c-0.765-1.064-1.6-1.812-2.505-2.245c-0.906-0.431-1.835-0.59-2.793-0.476
				c-0.957,0.115-1.898,0.505-2.822,1.169c-1.091,0.784-1.907,1.614-2.446,2.489c-0.539,0.875-0.868,1.76-0.991,2.654
				c-0.057,0.509-0.158,0.932-0.299,1.266C120.823,383.403,120.584,383.691,120.249,383.933z M138.172,400.726
				c0.449-0.322,1.028-0.579,1.739-0.772c0.711-0.192,1.447-0.202,2.209-0.027c0.762,0.174,1.444,0.681,2.047,1.522
				c0.564,0.784,0.829,1.538,0.798,2.26c-0.032,0.725-0.23,1.365-0.592,1.923c-0.363,0.558-0.783,1.007-1.258,1.349
				c-0.897,0.644-1.921,0.904-3.073,0.776c-1.153-0.127-2.04-0.625-2.663-1.493c-0.548-0.878-0.791-1.851-0.727-2.916
				C136.714,402.284,137.221,401.409,138.172,400.726z"/>
		</g>
	</g>
</g>
<g id="Lines_2">
	<g>
		<g>
			<path style="fill:#8380FF;" d="M430.15,70.564c6.863-4.929,14.03-9.347,21.517-13.265c1.085-0.568,0.12-2.228-0.961-1.645
				c-7.441,4.011-14.555,8.519-21.361,13.533C428.531,69.787,429.311,71.166,430.15,70.564L430.15,70.564z"/>
		</g>
		<g>
			<path style="fill:#8380FF;" d="M435.691,78.468c5.321-1.531,10.583-3.399,15.76-5.365c1.181-0.448,0.692-2.353-0.53-1.922
				c-5.292,1.868-10.582,3.871-15.703,6.167C434.579,77.635,435.036,78.657,435.691,78.468L435.691,78.468z"/>
		</g>
		<g>
			<path style="fill:#8380FF;" d="M424.641,65.575c1.709-4.305,3.693-8.498,5.392-12.808c0.528-1.34-1.65-1.937-2.164-0.597
				c-1.651,4.301-3.012,8.708-4.651,13.012C422.877,66.075,424.295,66.445,424.641,65.575L424.641,65.575z"/>
		</g>
		<g>
			<path style="fill:#8380FF;" d="M434.951,47.718c0.036-0.139,0.071-0.278,0.107-0.417c0.145-0.566-0.278-1.14-0.868-1.14
				c-0.231,0-0.473,0.1-0.637,0.264c-0.23,0.23-0.312,0.563-0.232,0.876c0.036,0.139,0.071,0.278,0.107,0.417
				c0.083,0.323,0.422,0.595,0.762,0.58C434.533,48.282,434.862,48.064,434.951,47.718L434.951,47.718z"/>
		</g>
	</g>
</g>
<g id="Lines_1">
	<g>
		<g>
			<path style="fill:#A0D2F4;" d="M41.24,82.389c5.242,2.96,10.973,5.322,16.935,6.314c1.029,0.171,1.494-1.354,0.44-1.594
				c-5.873-1.342-11.321-3.071-16.637-5.982C41.153,80.675,40.419,81.925,41.24,82.389L41.24,82.389z"/>
		</g>
		<g>
			<path style="fill:#A0D2F4;" d="M48.439,63.425c5.145,7.312,10.277,14.656,15.612,21.832c0.635,0.854,2.088,0.042,1.453-0.849
				C60.31,77.111,54.892,69.957,49.51,62.799C49.04,62.174,47.973,62.763,48.439,63.425L48.439,63.425z"/>
		</g>
		<g>
			<path style="fill:#A0D2F4;" d="M68.048,68.765c1.019,3.757,2.039,7.515,3.058,11.272c0.297,1.094,2.048,0.607,1.694-0.467
				c-1.219-3.702-2.437-7.405-3.656-11.107C68.916,67.772,67.854,68.053,68.048,68.765L68.048,68.765z"/>
		</g>
	</g>
</g>
<g id="Speech_Bubble_2">
	<g>
		<path style="fill:#8380FF;" d="M424.006,110.533c1.264-7.592,2.886-15.421,1.021-22.888c-2.19-8.77-9.497-16.013-18.211-18.315
			c-18.315-5.221-28.95-6.928-47.68-7.896c-4.922-0.254-11.733,1.182-15.679,4.136c-3.504,2.623-6.789,6.132-8.255,10.257
			c-3.924,11.042-5.35,22.964-4.141,34.619c0.635,6.12,2.058,12.334,5.553,17.398c3.962,5.741,10.269,9.506,16.854,11.805
			c10.717,3.741,22.279,3.98,33.579,5.055c6.991,0.665,14.388,1.601,20.753-1.365c5.771-2.688,9.767-8.262,12.057-14.203
			S422.96,116.813,424.006,110.533z"/>
		<g>
			<path style="fill:#FFFFFF;" d="M373.88,90.192c-0.687-0.06-1.309-0.373-1.865-0.941c-0.557-0.567-0.8-1.246-0.731-2.036
				c0.027-0.309,0.094-0.589,0.203-0.84c0.109-0.25,0.316-0.551,0.624-0.905c1.12-1.355,2.677-2.344,4.67-2.967
				c1.991-0.622,4.101-0.818,6.332-0.591c2.263,0.232,4.205,0.878,5.826,1.935c1.622,1.058,2.839,2.462,3.656,4.211
				c0.817,1.75,1.128,3.741,0.933,5.973c-0.2,2.301-0.893,4.395-2.078,6.281c-1.185,1.886-2.681,3.365-4.487,4.436
				c-1.806,1.071-3.745,1.586-5.819,1.544l-0.437,3.232c-0.116,0.925-0.483,1.568-1.103,1.929c-0.62,0.361-1.341,0.506-2.165,0.434
				c-0.826-0.037-1.502-0.321-2.027-0.851c-0.525-0.531-0.711-1.29-0.555-2.281l0.627-4.824c0.152-0.956,0.502-1.695,1.05-2.219
				c0.546-0.524,1.422-0.732,2.624-0.628c1.339,0.117,2.586-0.094,3.741-0.634c1.154-0.539,2.116-1.355,2.886-2.448
				c0.769-1.091,1.222-2.411,1.357-3.956c0.114-1.305-0.032-2.416-0.436-3.334c-0.406-0.918-1.009-1.646-1.809-2.182
				c-0.802-0.537-1.769-0.855-2.902-0.954c-1.339-0.116-2.5-0.018-3.478,0.294c-0.979,0.313-1.807,0.769-2.481,1.367
				c-0.375,0.348-0.726,0.603-1.052,0.765C374.661,90.164,374.292,90.228,373.88,90.192z M376.529,114.61
				c0.548,0.048,1.155,0.23,1.821,0.549c0.664,0.317,1.228,0.791,1.693,1.419c0.464,0.629,0.651,1.458,0.562,2.488
				c-0.084,0.962-0.374,1.706-0.868,2.233c-0.497,0.528-1.064,0.885-1.703,1.072c-0.639,0.186-1.252,0.255-1.834,0.204
				c-1.101-0.095-2.045-0.568-2.836-1.415c-0.792-0.847-1.14-1.803-1.048-2.868c0.159-1.025,0.608-1.92,1.35-2.686
				C374.405,114.841,375.36,114.509,376.529,114.61z"/>
		</g>
	</g>
</g>
<g id="Speech_Bubble_1">
	<g>
		<path style="fill:#A0D2F4;" d="M165.155,107.957c-1.759-7.93-3.261-16.235-8.033-22.808c-5.605-7.721-15.616-11.927-25.054-10.742
			c-19.916,1.235-31.324,3.526-49.79,11.087c-4.814,1.971-11.02,5.787-13.716,10.236c-2.395,3.951-4.226,8.682-4.033,13.298
			c0.517,12.357,3.825,24.59,9.608,35.523c3.036,5.741,6.882,11.262,12.302,14.84c6.144,4.056,13.804,5.253,21.158,4.905
			c11.968-0.567,23.379-4.896,34.866-8.303c7.106-2.108,14.716-4.111,19.777-9.526c4.588-4.909,6.301-11.943,6.198-18.661
			C168.333,121.088,166.61,114.517,165.155,107.957z"/>
		<g>
			<path style="fill:#FFFFFF;" d="M105.162,107.017c-0.677,0.226-1.394,0.182-2.154-0.127c-0.76-0.311-1.27-0.854-1.528-1.631
				c-0.102-0.305-0.153-0.596-0.152-0.879c-0.001-0.281,0.073-0.652,0.219-1.115c0.507-1.746,1.577-3.323,3.211-4.731
				c1.633-1.408,3.554-2.46,5.761-3.159c2.242-0.709,4.348-0.894,6.319-0.556c1.971,0.338,3.703,1.17,5.195,2.493
				c1.491,1.324,2.604,3.084,3.336,5.28c0.754,2.265,0.957,4.535,0.607,6.809c-0.35,2.275-1.161,4.291-2.434,6.048
				c-1.273,1.758-2.901,3.042-4.883,3.852l0.911,3.243c0.27,0.924,0.186,1.686-0.254,2.282c-0.44,0.596-1.064,1.03-1.876,1.3
				c-0.799,0.304-1.556,0.313-2.272,0.025c-0.716-0.287-1.203-0.931-1.461-1.934l-1.385-4.833c-0.248-0.968-0.219-1.813,0.085-2.534
				c0.304-0.722,1.048-1.278,2.231-1.672c1.318-0.439,2.413-1.151,3.286-2.137c0.873-0.986,1.451-2.154,1.733-3.505
				c0.281-1.352,0.169-2.787-0.337-4.309c-0.428-1.285-1.022-2.278-1.782-2.983c-0.761-0.703-1.63-1.146-2.61-1.325
				c-0.98-0.18-2.027-0.085-3.142,0.287c-1.318,0.439-2.377,1.007-3.177,1.705c-0.801,0.698-1.396,1.47-1.792,2.313
				c-0.214,0.485-0.442,0.87-0.684,1.158C105.892,106.67,105.568,106.882,105.162,107.017z M117.695,129.084
				c0.54-0.18,1.191-0.256,1.951-0.228c0.76,0.027,1.49,0.245,2.188,0.65c0.698,0.406,1.216,1.115,1.554,2.13
				c0.315,0.946,0.346,1.77,0.092,2.475c-0.253,0.705-0.645,1.277-1.174,1.714c-0.53,0.44-1.081,0.755-1.656,0.946
				c-1.082,0.36-2.172,0.301-3.269-0.178c-1.098-0.478-1.821-1.242-2.17-2.29c-0.271-1.036-0.211-2.07,0.178-3.101
				C115.776,130.173,116.546,129.467,117.695,129.084z"/>
		</g>
	</g>
</g>
<g id="Character">
	<g>
		<path style="fill:#8380FF;" d="M267.641,168.283c-4.605-5.219-26.941-11.074-26.941-11.074s-35.499-17.443-56.721,9.827
			c-10.991,14.124-1.693,39.23-1.693,39.23s33.664,14.775,36.364,21.975l61.072-36.332
			C279.721,191.909,279.073,181.24,267.641,168.283z"/>
		<g>
			<g>
				<path style="fill:#CC8770;" d="M266.082,161.338c4.915-1.048,26.673-7.373,25.075-35.868c-0.052-1.22-0.172-2.475-0.327-3.781
					c-1.529-12.735-4.417-22.033-8.954-28.701c-0.378-0.567-0.791-1.117-1.203-1.65c-15.055-19.403-49.393-18.097-60.856,3.918
					c-1.719,3.317,0.756,8.026,0.791,11.807c0.017,2.509,0.206,5.208,0.515,7.992c0.327,3.025,0.808,6.153,1.358,9.229
					c0.636,3.523,1.375,6.995,2.097,10.191c1.564,6.806,3.145,12.322,3.764,14.471l0.017,0.052c0.172,0.584,0.275,0.911,0.275,0.911
					l-1.68,29.227c4.364,11.748,21.955,12.431,39.537,13.123l-1.422-29.855l0.035-0.877
					C265.103,161.527,265.447,161.475,266.082,161.338z"/>
				<path style="fill:#421B36;" d="M276.068,101.942c0.209,1.296-0.568,2.499-1.737,2.688c-1.168,0.188-2.285-0.709-2.494-2.005
					c-0.209-1.296,0.568-2.499,1.737-2.688C274.742,99.748,275.859,100.646,276.068,101.942z"/>
				<path style="fill:#421B36;" d="M251.538,107.301c0.209,1.296-0.568,2.499-1.737,2.688c-1.168,0.189-2.285-0.709-2.494-2.005
					c-0.209-1.296,0.568-2.499,1.737-2.688C250.212,105.108,251.329,106.005,251.538,107.301z"/>
				<g>
					<path style="fill:#421B36;" d="M237.777,103.577c4.84,1.066,12.41,0.132,15.332-4.409c0.475-0.738-0.535-1.345-1.128-0.871
						c-3.686,2.942-9.069,5.405-13.992,4.51C237.49,102.718,237.27,103.465,237.777,103.577L237.777,103.577z"/>
				</g>
				<g>
					<path style="fill:#421B36;" d="M273.376,90.389c-4.62-3.201-10.88-1.617-12.84,3.702c-2.856,7.749,2.56,18.05,7.564,23.732
						c0.557,0.632,1.69-0.217,1.183-0.912c-3.259-4.469-6.26-9.199-7.426-14.701c-0.839-3.957-0.865-8.868,3.054-11.102
						c2.341-1.334,5.759-1.196,8.23-0.16C273.479,91.088,273.641,90.572,273.376,90.389L273.376,90.389z"/>
				</g>
				<g>
					<path style="fill:#421B36;" d="M248.155,158.984c6.607,3.207,13.049,4.846,20.302,2.954c0.789-0.206,0.454-1.38-0.335-1.215
						c-7.149,1.498-13.023-0.012-19.922-1.847C248.138,158.859,248.093,158.954,248.155,158.984L248.155,158.984z"/>
				</g>
			</g>
			<g>
				<path style="fill:#421B36;" d="M257.605,122.77c1.398,0.108,2.725,0.072,4.092,0.48c1.379,0.411,2.403,1.236,3.63,1.919
					c0.601,0.334,1.078-0.408,0.692-0.897c-1.743-2.205-5.919-3.26-8.51-2.218C257.13,122.206,257.178,122.737,257.605,122.77
					L257.605,122.77z"/>
			</g>
			<path style="fill:#421B36;" d="M292.452,70.151c-2.043-2.649-5.247-4.206-8.52-4.901c-1.88-0.399-3.795-0.537-5.719-0.57
				c1.108-0.117,2.19-0.35,3.207-0.81c2.311-1.045,4.154-3.594,3.521-6.049c-0.724-2.806-4.028-3.985-6.894-4.417
				c-7.502-1.131-14.637,2.033-22.214,5.31c2.35-1.346,4.567-4.826,5.734-7.27c1.167-2.444,0.801-6.643-1.487-8.092
				c-4.376-2.773-11.378,1.168-14.738,4.284c-6.648,6.167-8.282,9.483-12.101,16.454c0.424-2.78,0.061-5.63-0.762-10.334
				c-1.259-7.191-8.315-8.73-11.766-5.576c-1.805,1.649-2.55,4.161-2.867,6.585c-0.722,5.53,1.169,10.52,2.143,14.91
				c-7.461-2.273-14.486-0.489-21.455,9.235c-1.523,2.125-1.822,3.483-1.953,6.095c-0.132,2.611,1.328,4.501,3.829,5.157
				c-1.719,4.141-5.796,9.791-3.422,13.016c1.54,2.091,4.475,2.725,6.928,1.992c4.055,24.275,24.444,43.824,24.444,43.824
				l-4.915-33.188c0,0,12.425,3.331,4.713-8.901c-1.027-1.628-1.667-2.773-2.053-3.715c1.66,0.582,3.488,0.613,5.063-0.146
				c2.361-1.136,3.687-3.667,4.633-6.11c2.231-5.762,3.25-11.99,2.97-18.162c3.829,2.519,7.288,5.265,10.652,8.378
				c3.363,3.113,8.839,7.891,13.389,7.346c4.551-0.545,2.675-9.769,0.699-13.904c4.646,4.232,10.987,8.295,16.066,11.996
				c2.812,2.049,5.595,3.657,9.072,3.512c2.341-0.098,5.064-4.502,3.121-7.608c-1.72-2.751-2.832-4.493-5.761-5.963
				c2.678,0.926,6.037-0.43,7.48-2.964C295.144,76.655,294.495,72.801,292.452,70.151z"/>
			<g>
				<path style="fill:#421B36;" d="M222.023,69.849c-4.271-4.321-9.903-7.12-15.882-8.115c-0.954-0.159-1.378,1.282-0.406,1.471
					c5.907,1.152,10.902,3.581,15.571,7.361C221.803,70.968,222.492,70.324,222.023,69.849L222.023,69.849z"/>
			</g>
			<ellipse style="opacity:0.2;fill:#421B36;" cx="247.424" cy="118.271" rx="7.802" ry="3.384"/>
			<ellipse style="opacity:0.2;fill:#421B36;" cx="280.224" cy="114.887" rx="6.271" ry="3.384"/>
			<g>
				<path style="fill:#944D4D;" d="M229.271,103.023c-8.677-2.675-7.31-11.549-6.123-18.728c0.156-0.942-1.23-1.369-1.462-0.403
					c-1.499,6.241-2.643,20.48,7.482,19.894C229.601,103.762,229.701,103.156,229.271,103.023L229.271,103.023z"/>
			</g>
			<g>
				<path style="fill:#944D4D;" d="M215.259,83.183c-5.98,6.626-9.126,14.719-9.42,23.626c-0.025,0.761,1.148,0.757,1.181,0
					c0.376-8.548,3.438-16.417,8.774-23.09C216.093,83.346,215.592,82.813,215.259,83.183L215.259,83.183z"/>
			</g>
			<g>
				<path style="fill:#944D4D;" d="M245.947,66.287c2.553-2.077,5.328-3.857,8.279-5.314c0.465-0.23,0.057-0.928-0.407-0.697
					c-3.021,1.505-5.773,3.349-8.31,5.573C245.204,66.115,245.642,66.535,245.947,66.287L245.947,66.287z"/>
			</g>
			<g>
				<path style="fill:#944D4D;" d="M233.209,62.243c-1.451,2.556-2.576,5.236-3.311,8.084c-0.179,0.694,0.903,0.991,1.072,0.296
					c0.676-2.775,1.616-5.437,2.91-7.987C234.105,62.192,233.458,61.805,233.209,62.243L233.209,62.243z"/>
			</g>
			<g>
				<path style="fill:#944D4D;" d="M239.969,71.013c4.184-0.069,8.256,0.328,12.187,1.837c3.518,1.351,9.387,4.22,10.829,7.885
					c0.252,0.641,1.29,0.382,1.053-0.29c-1.239-3.524-5.456-5.731-8.588-7.333c-4.769-2.438-10.174-3.403-15.48-2.768
					C239.554,70.394,239.527,71.021,239.969,71.013L239.969,71.013z"/>
			</g>
			<g>
				<path style="fill:#944D4D;" d="M248.998,70.738c9.555-2.612,18.967-1.771,27.965,2.338c0.631,0.288,1.189-0.634,0.552-0.943
					c-9.045-4.396-19.12-5.049-28.687-2.012C248.438,70.245,248.599,70.848,248.998,70.738L248.998,70.738z"/>
			</g>
			<path style="fill:#CC8770;" d="M223.445,115.804c-3.668-1.797-8.542-0.668-10.108,0.942c-1.566,1.611-2.341,3.866-2.525,6.105
				c-0.307,3.722,1.051,7.677,3.981,9.994c2.93,2.316,9.562,2.744,12.471,0.402L223.445,115.804z"/>
			<g>
				<path style="fill:#421B36;" d="M216.685,125.746c1.521-1.777,4.115-1.917,5.886-0.548c0.648,0.501,1.524-0.295,0.926-0.926
					c-1.024-1.08-2.619-1.577-4.083-1.303c-1.608,0.301-2.348,1.247-2.935,2.657C216.432,125.739,216.608,125.835,216.685,125.746
					L216.685,125.746z"/>
			</g>
		</g>
		<path style="fill:#421B36;" d="M228.098,183.11c0,0-20.424-10.588-17.459-19.058c2.964-8.47,17.459-6.843,17.459-6.843V183.11z"/>
		<g>
			<path style="fill:#8380FF;" d="M317.03,349.284l-123.681-3.303c-0.489,2.63-11.112,48.139-22.343,106.377
				c21.508,7.956,47.668,8.852,77.812,8.607l7.946-14.546c0,0,2.866,12.926,2.895,14.524c24.246-1.119,46.729-2.982,66.379-8.676
				C326.344,402.309,320.434,366.611,317.03,349.284z"/>
			<g>
				<path style="fill:#421B36;" d="M180.163,419.202c14.387-3.363,27.28-12.801,34.245-25.925c0.428-0.806-0.74-1.491-1.224-0.715
					c-7.831,12.551-19.008,21.543-33.256,25.786C179.381,418.51,179.608,419.332,180.163,419.202L180.163,419.202z"/>
			</g>
			<g>
				<path style="fill:#421B36;" d="M273.581,386.224c1.103,17.743-0.722,35.261-4.337,52.631c0.211-0.161,0.422-0.321,0.633-0.482
					c-4.314,0.137-8.628,0.275-12.942,0.412c0.189,0.329,0.378,0.658,0.567,0.987c0.712-1.654,0.934-3.59,1.217-5.347
					c1.202-7.464,1.667-15.058,2.05-22.599c0.41-8.064,0.613-16.137,0.723-24.21c0.012-0.845-1.301-0.845-1.312,0
					c-0.168,12.246-0.484,24.522-1.574,36.726c-0.402,4.501-0.805,9.1-1.886,13.502c-0.089,0.364-0.193,0.722-0.297,1.081
					c-0.026,0.09-0.208,0.543-0.054,0.185c-0.184,0.428,0.02,1.005,0.567,0.987c4.314-0.137,8.628-0.275,12.942-0.412
					c0.274-0.009,0.573-0.196,0.633-0.482c3.637-17.481,5.493-35.123,4.383-52.98C274.842,385.385,273.529,385.379,273.581,386.224
					L273.581,386.224z"/>
			</g>
			<path style="opacity:0.3;fill:#421B36;" d="M299.747,398.55c-0.159,0.1-0.493,0.009-0.398-0.17
				C299.545,398.336,299.689,398.338,299.747,398.55z M299.747,398.55c0.002,0.008,0.006,0.011,0.008,0.019
				c0.005,0,0.007-0.003,0.011-0.003c0.009-0.015,0.018-0.022,0.026-0.038C299.782,398.54,299.761,398.541,299.747,398.55z
				 M213.421,400.33c-0.539-0.548-0.932-1.171-1.738-1.204c0,0.336,0,0.672,0,1.008c-0.37,0.148-0.838-0.073-1.186,0.329
				c0.232,0.562,0.707,0.874,1.186,1.183c0,0.084,0,0.167,0,0.251C212.713,402.269,213.013,401.007,213.421,400.33z
				 M212.617,411.384c-0.376-0.065-0.655-0.114-0.934-0.163c0,0.168,0,0.336,0,0.504c-0.847-0.166-1.05,0.417-1.228,0.978
				c0.225,0.706,0.336,1.58,1.228,1.542c0-0.084,0-0.168,0-0.252c0.85,0.25,1.133-0.416,1.574-0.961
				C213.037,412.467,212.821,411.91,212.617,411.384z M213.197,425.202c-0.377-1.274-0.436-1.336-1.514-1.634
				c0,0.168,0,0.336,0,0.504c-0.358,0.133-0.834-0.051-1.075,0.398c0.189,0.935,0.189,0.935,1.075,1.113c0,0.084,0,0.168,0,0.252
				C212.337,425.938,212.742,425.504,213.197,425.202z M292.894,396.2c-3.888,4.337,2.374,1.684,2.064,4.452
				c0.009,0.551,0.135,0.983,0.841,1.325c0.38-0.373,0.866-0.34,1.371-0.303c1.192-0.223,0.145-1.667-0.377-2.131
				c-0.929-0.266-1.965-0.344-2.545-1.264C294.643,396.972,294.478,395.864,292.894,396.2z M289.408,402.082
				c0.964,0.325,1.693,0.092,2.293-0.63c0.328-1.895-1.398-2.846-2.911-1.835C288.487,400.586,288.98,401.286,289.408,402.082z
				 M242.063,423.432c-0.964,0.148-1.409,0.829-1.399,1.473c0.792-0.357,1.575-0.721,2.351-1.091
				C242.784,423.61,242.469,423.464,242.063,423.432z M298.608,402.348c-0.261,0.433-0.535,0.89-0.878,1.458
				C300.391,407.6,302.105,401.508,298.608,402.348z M302.449,408.188c0.426-0.258,1.001-0.34,1.261-0.867
				c-0.202-1.557-1.815-2.743-2.943-1.062C301.141,407.073,301.382,407.962,302.449,408.188z M310.592,410.921
				c0.326,0.118,0.636,0.23,0.982,0.355c0.726-0.431,0.863-1.122,1.194-1.72c-0.117-0.224-0.232-0.444-0.338-0.65
				c-1.455-0.521-1.7-0.501-2.667,0.223C309.938,409.765,310.303,410.323,310.592,410.921z M257.254,414.327
				c-0.918,0.286-1.538,0.743-1.493,1.739c0.199,0.34,0.421,0.548,0.665,0.679c0.682-0.381,1.356-0.758,2.02-1.129
				C258.255,415.09,257.745,414.635,257.254,414.327z M265.467,401.956c0.526,0.274,1.755,0.147,1.581-0.654
				c-0.17-0.39,0.355-0.554,0.259-0.953c-0.231-0.33-0.488-0.695-0.751-1.07c-0.54,0.142-1.442,0.082-1.603,0.678
				C265.276,400.666,264.348,401.708,265.467,401.956z M281.449,390.163c-0.73,0.359-1.562,0.527-1.722,1.534
				c0.229,0.329,0.431,0.784,0.734,1.087c0.963,0.502,1.607-0.372,2.14-1.043C282.811,391.037,281.854,390.637,281.449,390.163z
				 M263.459,396.511c-0.783,0.108-1.422,0.426-1.793,1.152c0.283,1.728,2.848,2.017,2.748,0.481
				C264.007,397.604,264.211,396.777,263.459,396.511z M260.474,405.321c-0.532,0.091-1.103,0.302-1.534,0.581
				c-0.109,0.346-0.197,0.62-0.31,0.977C259.962,409.733,262.357,407.234,260.474,405.321z M286.03,392.01
				c0.276,0.092,0.57,0.191,0.862,0.288c-0.052,0.28-0.09,0.478-0.142,0.759c1.247,0.066,1.577-0.588,1.642-1.409l-2.323-0.534
				C285.989,391.367,285.96,391.661,286.03,392.01z M218.89,401.796c0.526-0.894,0.526-0.894,0.527-1.663
				c-0.416-0.28-0.846-0.57-1.262-0.849c-0.815,0.527-1.336,1.175-1.263,2.208C217.45,402.26,218.192,401.922,218.89,401.796z
				 M216.348,397.896c-0.025-2.907-3.323-1.567-2.396,0.778C214.86,398.535,215.792,398.819,216.348,397.896z M218.787,429.903
				c-1.536-0.651-2.553,0.938-1.888,1.874c0.695-0.062,1.399-0.144,2.108-0.241C219.259,430.93,219.217,430.192,218.787,429.903z
				 M238.761,423.414c1.68-0.373,2.107-2.099,0.483-2.765C237.402,420.437,237.629,422.544,238.761,423.414z M237.193,393.762
				c-0.427-0.136-0.772-0.247-1.124-0.359c-0.332,0.232-0.633,0.442-1.084,0.757C234.928,397.03,238.512,396.333,237.193,393.762z
				 M243.53,419.394c0.131-1.019-0.782-1.294-1.184-1.863c-1.235-0.108-1.363,0.749-1.538,1.571
				C241.5,420.204,242.61,420.375,243.53,419.394z M224.904,426.013c0.707-1.43-0.193-3.035-1.779-2.01
				c-0.174,0.375-0.329,0.707-0.575,1.238C223.3,425.772,223.956,426.763,224.904,426.013z M257.129,402.391
				c-1.54,0.269-1.657,2.031-0.402,2.789c0.977-0.003,1.337-0.762,1.893-1.38C258.07,403.279,257.619,402.853,257.129,402.391z
				 M222.927,413.746c2.469,0.755,2.965-0.848,1.332-2.415C223.455,411.969,221.703,412.649,222.927,413.746z M253.122,401.611
				c0.868,0.473,1.964,0.632,2.25-0.605C255.6,398.71,252.319,399.077,253.122,401.611z M299.766,398.565
				c-0.005,0-0.007,0.003-0.011,0.003c-0.002-0.008-0.006-0.011-0.008-0.019c-0.159,0.1-0.493,0.009-0.398-0.17
				c0.196-0.044,0.34-0.042,0.398,0.17c0.014-0.009,0.035-0.01,0.046-0.022C299.784,398.543,299.775,398.55,299.766,398.565
				c0.462-0.005,0.506-0.533,0.693-0.844c-0.235-0.435-0.446-0.826-0.691-1.28C296.6,395.697,298.439,400.851,299.766,398.565z
				 M251.094,398.889c2.691-0.88,0.394-4.324-1.215-1.576C250.018,398.118,250.218,398.773,251.094,398.889z M240.273,391.66
				c-0.022-0.073-0.044-0.132-0.065-0.198l-2.59,0.41c-0.034,0.083-0.055,0.177-0.05,0.29
				C238.626,393.574,239.835,393.319,240.273,391.66z M243.828,397.482c0.444,0.388,0.778,0.679,1.112,0.971
				c-0.057,0.079-0.114,0.157-0.172,0.235C248.646,398.959,245.318,394.356,243.828,397.482z M272.991,401.96
				c0.155-0.406,0.287-0.75,0.439-1.146C272.141,396.914,268.878,401.793,272.991,401.96z M226.877,429.335
				c1.084-0.675,1.084-0.675,1.525-1.339c-0.236-0.497-0.652-0.805-1.031-1.294C225.328,427.14,224.922,428.357,226.877,429.335z
				 M258.699,394.83c0.572,0.687,1.083,1.404,2.246,0.93C262.327,393.515,259.721,392.448,258.699,394.83z M272.106,389.946
				c1.003,0.13,1.501-1.013,1.264-1.751l-1.932-0.444C270.668,388.264,270.915,389.812,272.106,389.946z M253.519,411.641
				c-0.295,0.368-0.6,0.75-0.912,1.141C254.539,416.204,257.096,411.126,253.519,411.641z M304.085,404.362
				c1.533,1.03,1.746,0.622,2.638-0.582c-0.194-1.178-1.563-1.802-2.408-0.831C304.241,403.404,304.168,403.847,304.085,404.362z
				 M258.523,397.329c-0.707-0.368-1.251-1.333-2.328-0.494C254.954,398.871,257.88,399.923,258.523,397.329z M248.692,420.005
				c0.266-0.329,0.525-0.648,0.789-0.972c-0.187-0.625-0.786-1.035-1.15-1.529c-1.041,0.218-1.041,0.218-1.466,1.129
				C247.377,420.12,247.442,420.168,248.692,420.005z M322.99,402.557c-2.24,0.81,0.137,3.136,1.34,2.134l-0.096-1.53
				C323.944,402.828,323.572,402.586,322.99,402.557z M287.803,396.5c-0.787-0.146-1.453-0.078-1.981,0.521
				c-0.04,1.774,1.813,2.121,2.87,0.982C288.395,397.5,288.121,397.037,287.803,396.5z M280.962,399.18
				c0.374-0.19,0.769-0.392,1.148-0.584c0.069-0.504,0.131-0.947,0.189-1.369c-0.332-0.459-0.779-0.65-1.3-0.802
				c-0.335,0.225-0.675,0.451-1.002,0.672C280.092,398.22,280.255,398.58,280.962,399.18z M271.649,393.588
				c-1.175,0.634-0.723,2.031,0.562,2.308C274.147,395.575,273.428,392.501,271.649,393.588z M317.43,411.038
				c0.986,0.163,1.504-1.529,0.725-2.137C316.461,407.549,314.948,410.861,317.43,411.038z M291.785,403.73
				c1.82,1.307,0.982,2.286,2.896,0.282c0-0.298,0-0.544,0-0.944C293.596,402.832,292.177,402.342,291.785,403.73z M249.72,403.976
				c0.665,1.083,1.993,0.904,2.877,0.109C252.313,402.178,249.966,402.017,249.72,403.976z M266.413,389.826
				c0.655,0.14,0.686-0.968,0.99-1.428c-0.284-0.362-0.573-0.731-0.869-1.108l-0.949,0.15
				C264.588,388.107,264.999,389.582,266.413,389.826z M228.573,401.288c1.149,0.717,1.149,0.717,2.09,0.531
				c0.938-1.57-0.39-3.274-1.819-1.682C228.759,400.498,228.674,400.859,228.573,401.288z M277.013,400.89
				c0.299,0.482,0.769,1.463,1.436,0.908c0.912-0.698,1.447-2.04,0.055-2.542C277.767,399.617,276.522,399.88,277.013,400.89z
				 M221.236,399.144c0.943-0.75,1.574-2.843-0.149-2.829c-0.364,0.281-0.691,0.533-1.031,0.796
				c-0.093,0.301-0.189,0.613-0.292,0.945C220.162,398.589,220.708,398.866,221.236,399.144z M261.366,413.071
				c-0.201-0.799-0.293-1.626-1.438-1.695c-0.299,0.214-0.661,0.474-1.026,0.734c0.02,0.535,0.557,0.739,0.289,1.196
				C259.692,414.468,260.906,414.068,261.366,413.071z M216.792,407.561c0.299,0.261,0.754-0.011,1.032,0.35
				c0.642,0.295,1.413-0.583,1.502-1.222c-0.316-0.198-0.559-0.342-0.665-0.72C217.94,404.627,216.285,406.561,216.792,407.561z
				 M289.002,406.808c0.233,1.286,2.042,1.278,2.716,0.205c-0.363-0.612-0.728-1.197-1.072-1.813
				C289.866,405.66,289.163,405.941,289.002,406.808z M303.639,400.538c-0.587-0.818-2.947-1.253-2.65,0.302
				C301.012,402.649,303.503,402.071,303.639,400.538z M236.959,399.819c-0.736-0.167-1.417-0.233-2.116,0.329
				c-0.288,1.06,0.449,1.49,1.059,1.995c0.484-0.297,0.9-0.555,1.34-0.826C237.074,400.784,236.995,400.373,236.959,399.819z
				 M231.803,415.531c0.126,0.369,0.256,0.753,0.398,1.168c0.577,0.097,1.053,0.559,1.771,0.267
				C235.384,414.627,233.339,414.306,231.803,415.531z M304.138,410.012c0.09,0.087,0.184,0.178,0.275,0.267
				c0.597,0.097,1.19,0.195,1.778,0.293c0.173-0.427,0.327-0.807,0.473-1.167C305.987,407.995,304.077,408.421,304.138,410.012z
				 M223.27,405.666c-0.694,0.707,0.225,1.865,0.813,2.52C226.571,407.595,225.013,405.116,223.27,405.666z M231.808,421.784
				c0.157,0.937,0.845,1.201,1.484,1.591c0.216-0.115,0.433-0.23,0.65-0.345C234.423,421.079,232.807,419.523,231.808,421.784z
				 M274.451,390.469c-0.287,0.441-0.533,0.819-0.772,1.187c0.861,0.943,0.861,0.943,2.002,1.216
				c0.557-0.478,0.451-1.107,0.614-1.646C275.855,390.465,275.088,390.664,274.451,390.469z M237.165,418.204
				c-0.473-0.603-2.005-0.205-2.464,0.241c0.654,0.701,0.897,1.76,1.912,1.878C237.514,419.949,237.267,418.966,237.165,418.204z
				 M244.988,420.661c-0.425,0.36-0.795,0.673-1.195,1.011c0.344,0.659,0.615,1.098,0.879,1.341c0.58-0.285,1.156-0.573,1.727-0.862
				c0.057-0.074,0.105-0.13,0.166-0.212C246.227,421.277,245.736,420.879,244.988,420.661z M313.759,411.891
				c0.558,0.101,1.101,0.201,1.63,0.298C314.801,411.338,314.314,411.213,313.759,411.891z M294.727,406.801
				c0.636,1.394,2.457,1.119,2.957-0.253C296.947,405.157,295.301,405.663,294.727,406.801z M214.886,414.372
				c-0.533,0.406-0.967,0.828-1.11,1.478C214.958,418.505,217.895,414.883,214.886,414.372z M215.703,410.884
				c0.712-0.586,0.797-2.055-0.355-2.226C212.886,408.794,213.733,411.718,215.703,410.884z M216.249,403.224
				c-1.358-0.782-1.566-0.725-2.671,0.678C214.132,405.799,216.162,404.889,216.249,403.224z M245.151,392.988
				c0.325,0.282,1.137-0.09,0.864-0.538c-0.431-0.578,0.196-0.913,0.276-1.324c-0.193-0.262-0.376-0.426-0.556-0.54l-1.379,0.219
				c-0.194,0.158-0.389,0.349-0.59,0.554C244.243,392.043,244.414,392.608,245.151,392.988z M249.264,394.302
				c-0.083-0.15-0.185-0.33-0.353-0.628C244.159,393.098,248.457,398.418,249.264,394.302z M316.849,398.727
				c0.737,0.304,1.222,0.151,1.45-0.205l-2.407-0.553C315.939,398.245,316.219,398.513,316.849,398.727z M222.466,427.921
				c-1.171-2.236-2.308-0.613-2.723,1.079C221.448,429.496,221.723,428.998,222.466,427.921z M263.76,392.735
				c0.736-1.571,0.586-2.206-1.248-2.262c-0.909,0.513-0.698,1.284-0.109,1.869C262.635,392.985,262.821,392.987,263.76,392.735z
				 M263.217,402.366c-1.431,0.482-1.366,2.206-0.006,2.898C264.52,404.431,264.766,403.015,263.217,402.366z M246.44,403.816
				c-0.367-0.828-1.445-1.737-2.29-0.904c-0.289,0.826,0.031,1.453,0.596,2.003C245.803,404.997,245.803,404.997,246.44,403.816z
				 M223.407,395.608c0.795,0.15,1.455,0.022,2.076-0.399c-0.03-0.542-0.308-0.938-0.532-1.328l-1.831,0.29
				C222.947,394.59,222.995,395.133,223.407,395.608z M290.877,393.346c-0.597,0.447-1.256,0.133-1.759,0.565
				C288.709,397.24,292.774,395.776,290.877,393.346z M274.518,402.822c-0.176,0.348-0.343,0.679-0.496,0.982
				c0.394,1.443,1.533,1.903,2.42,0.509C276.104,403.263,275.918,402.215,274.518,402.822z M219.715,421.88
				c0.108,0.912,0.799,1.035,1.468,1.441c0.384-0.359,0.715-0.669,1.008-0.943c0-0.51,0-0.921,0-1.331
				C221.019,419.985,220.739,421.55,219.715,421.88z M252.328,416.019c-0.189-2.356-2.023-1.145-2.453,0.368
				C250.568,417.18,252.573,417.586,252.328,416.019z M261.048,389.386c-0.251-0.416,0.283-0.668,0.176-1.06
				c-0.033-0.075-0.09-0.117-0.136-0.173l-1.999,0.317c-0.063,0.124-0.128,0.246-0.208,0.35
				C259.014,389.812,260.65,390.42,261.048,389.386z M324.486,409.211c-0.622-0.636-1.231-0.066-1.863-0.224
				C321.196,411.769,325.066,411.842,324.486,409.211z M319.314,411.977c-0.221,0.151-0.291,0.517-0.245,0.901
				c0.833,0.159,1.589,0.305,2.267,0.437C321.515,412.495,320.418,411.371,319.314,411.977z M231.275,418.488
				c-0.445-0.311-0.839-0.587-1.259-0.88c-0.518,0.405-0.996,0.777-1.461,1.142C228.989,420.728,230.933,420.31,231.275,418.488z
				 M284.024,402.238c2.945-1.281,0.16-4.596-1.117-1.414C283.358,401.195,284.008,401.429,284.024,402.238z M248.934,400.071
				c-0.474-0.188-0.959-0.38-1.429-0.566c-0.651,0.46-0.334,1.212-0.707,1.662C247.632,402.67,249.584,401.844,248.934,400.071z
				 M311.159,399.201c0.837-0.214,1.428-1.099,1.33-2.015l-1.975-0.454C309.896,397.787,311.079,398.053,311.159,399.201z
				 M248.948,413.544c0.599-2.263-1.553-2.693-2.086-0.43C247.466,414.298,247.688,414.344,248.948,413.544z M220.158,416.774
				c0.649,0.096,1.297,0.106,2.069-0.033C222.859,413.867,219.178,414.107,220.158,416.774z M258.568,391.679
				c-0.251-0.746-1.073-0.806-1.374-1.392c-0.691,0.355-0.691,0.355-1.098,1.231C256.621,393.823,257.528,392.789,258.568,391.679z
				 M282.382,403.22c-0.715-1.213-2.109-0.779-2.463,0.599C280.678,405.211,282.677,404.967,282.382,403.22z M235.088,405.994
				c-0.055,0.909-0.2,1.951,0.845,2.222c0.275-0.137,0.771-0.408,0.93-0.528c0-0.685,0-1.128,0-1.636
				C236.159,405.309,236.111,405.305,235.088,405.994z M321.04,399.883c-0.417-0.376-0.93,0.041-1.414-0.075
				c-0.76,0.054-0.543,0.885-0.564,1.458C320.495,402.35,322.502,401.43,321.04,399.883z M312.877,400.579
				c0.566,1.394,1.545,1.292,2.596,0.534C315.611,399.123,313.618,399.077,312.877,400.579z M268.073,410.521
				c0.735-0.346,1.453-0.666,2.154-0.961C269.649,407.953,267.199,409.287,268.073,410.521z M239.344,404.975
				c1.003,0.009,0.945-1.785,0.192-2.337C237.571,402.651,237.165,405.023,239.344,404.975z M238.995,408.599
				c-0.595,0.512-0.595,0.512-0.963,1.377c0.353,0.409,0.606,0.77,0.792,1.228C240.416,410.912,240.915,408.597,238.995,408.599z
				 M298.064,409.291c0.001,0.002,0.001,0.003,0.003,0.005c0.742,0.108,1.484,0.219,2.226,0.332
				c-0.147-0.331-0.273-0.659-0.418-1.086C299.237,408.882,298.465,408.606,298.064,409.291z M240.215,397.513
				c-0.371-0.405-0.978-0.364-1.198-0.904c-0.095-0.234-0.443-0.2-0.66-0.037C236.461,398.341,239.914,400.105,240.215,397.513z
				 M219.685,408.971c0.727,1.95,0.917,2.854,2.509,0.799c-0.206-0.444-0.364-0.948-0.748-1.369
				C220.772,408.515,220.389,408.708,219.685,408.971z M261.651,409.804c0.302,1.449,1.64,0.913,2.627,0.621
				c-0.025-0.421-0.048-0.777-0.076-1.23c-0.452-0.153-0.838-0.283-1.208-0.408C262.408,408.986,261.888,409.216,261.651,409.804z
				 M269.786,402.578c-0.314-0.092-0.624-0.184-0.928-0.273C266.147,405.545,271.973,405.431,269.786,402.578z M220.983,404.903
				c0.281-0.162,0.631-0.363,0.863-0.496c0-0.558,0-0.992,0-1.458c-0.284-0.149-0.567-0.296-0.888-0.464
				c-0.469,0.488-1.114,0.711-1.455,1.271C219.848,404.339,220.169,404.868,220.983,404.903z M285.894,403.689
				c0.636,0.943,1.393,1.241,2.377,0.938c-0.05-0.62-0.096-1.185-0.142-1.755C287.036,402.424,286.207,402.357,285.894,403.689z
				 M241.766,407.76c3.285,0.105-0.307-4.547-0.986-0.779C241.382,407.716,241.382,407.716,241.766,407.76z M231.889,427.303
				c0.076,0.488,0.127,0.803,0.175,1.035c0.677-0.232,1.349-0.471,2.017-0.719C233.713,426.848,232.859,426.843,231.889,427.303z
				 M307.51,401.905c0.687-0.201,1.305-0.381,1.949-0.57C309.218,398.672,306.213,399.049,307.51,401.905z M276.358,396.833
				c-1.192-0.586-1.335-0.567-2.168,0.288c0.355,0.487,0.183,0.988,0.454,1.394C275.786,399.161,276.936,397.955,276.358,396.833z
				 M279.393,395.003c-0.115-1.451-1.416-1.901-2.238-0.664C276.375,395.73,278.78,396.57,279.393,395.003z M250.824,392.659
				c1.377-0.47,2.263-1.971,0.28-2.268C249.677,390.273,249.467,392.291,250.824,392.659z M235.492,411.824
				c-0.221,0.41-0.796,0.56-0.825,1.276C236.772,415.233,238.917,411.324,235.492,411.824z M265.647,411.715
				c0.112-0.057,0.221-0.111,0.332-0.167C265.812,411.532,265.715,411.593,265.647,411.715z M302.656,395.821
				c0.28-0.284,0.469-0.532,0.605-0.756l-2.275-0.523c-0.051,0.095-0.09,0.198-0.112,0.309
				C301.268,395.483,301.787,395.77,302.656,395.821z M215.264,420.726c-0.866,0.439-1.972,0.562-1.197,1.785
				C215.519,423.595,217.798,421.461,215.264,420.726z M214.31,427.076c-1.402,2.176,1.941,3.046,1.868,0.558
				C215.599,427.186,215.092,426.622,214.31,427.076z M233.332,408.559c-0.607,0.288-1.306,0.394-1.516,1.294
				C232.694,412.195,235.668,409.739,233.332,408.559z M226.483,410.75c1.931-0.56,1.196-0.132,1.48-1.75
				C226.54,407.589,224.838,409.57,226.483,410.75z M251.626,408.814c-1.415-0.316-1.637,0.552-1.648,1.817
				C251.489,411.328,253.149,410.198,251.626,408.814z M245.546,408.794c-1.805-0.325-2.352,0.962-0.789,2.021
				c0.654-0.346,1.234-0.532,1.784-0.969C246.203,409.488,245.897,409.166,245.546,408.794z M218.296,417.664
				c-2.42,0.013-1.185,3.608,0.617,1.8C219.009,418.796,219.13,418.125,218.296,417.664z M271.391,407.696
				c0.866-0.169,1.471-0.549,1.982-1.083C273.052,404.364,269.693,405.962,271.391,407.696z M254.884,407.969
				c0.449-0.096,0.58-0.619,0.19-0.924c-0.491-0.361-0.2-0.988-0.6-1.441c-0.426-0.01-0.64,0.15-1.035,0.276
				C252.754,407.298,253.174,408.405,254.884,407.969z M259.175,401.292c0.381,0.205,0.772,0.416,1.298,0.699
				c0.561-0.691,1.235-1.45,0.481-2.21C259.494,399.589,258.951,399.618,259.175,401.292z M222.777,401.093
				c0.954,1.57,2.635,0.706,2.196-0.992C224.558,398.96,222.874,400.076,222.777,401.093z M229.906,405.607
				c-0.334,0.475-0.661,0.942-0.967,1.377c0.102,0.507,0.382,0.786,0.851,1.023C231.46,407.692,231.802,405.796,229.906,405.607z
				 M252.911,418.696c0.503-0.276,1.001-0.551,1.495-0.825C253.886,417.827,253.304,418.177,252.911,418.696z M227.968,398.288
				c0-0.407,0-0.775,0-1.173C225.311,395.491,224.468,399.991,227.968,398.288z M241.189,401.663c0.582,0,1.145,0,1.786,0
				C243.789,399.098,239.57,399.301,241.189,401.663z M306.854,406.31c0.203,0.833,0.91,1.266,1.294,1.973
				C310.518,407.583,308.552,404.958,306.854,406.31z M256.142,410.378c0.456,0.201,0.899,0.395,1.418,0.623
				C259.15,408.174,256.24,407.15,256.142,410.378z M222.864,418.73c0.396,1.772,2.209,1.456,2.335-0.234
				c-0.14-0.219-0.269-0.424-0.361-0.571C223.971,417.718,223.35,417.922,222.864,418.73z M267.326,394.237
				c-0.283-0.262-0.578-0.532-0.882-0.812c-0.545,0.328-1.034,0.62-1.531,0.92c0,0.226,0,0.427,0,0.611
				C265.93,395.852,267.48,396.017,267.326,394.237z M225.783,421.96c0.152,0.264,0.314,0.548,0.499,0.867c0.541,0,1.066,0,1.599,0
				c0.038-0.533,0.071-1.016,0.104-1.469C226.709,420.568,226.366,420.665,225.783,421.96z M255.539,389.032l-1.513,0.24
				C254.533,389.431,255.128,389.379,255.539,389.032z M228.614,424.925c0.186,0.292,0.357,0.564,0.608,0.96
				c1.153,0.256,3.019-0.361,1.324-1.425C229.855,423.442,229.171,424.296,228.614,424.925z M230.04,414.014
				c1.248-0.576,1.279-0.627,1.103-1.862C229.402,411.43,227.935,413.258,230.04,414.014z M313.85,406.184
				c-0.29,0.046-0.531-0.243-0.764,0.076c-0.082,3.007,4.023,0.888,1.385-0.717C314.271,405.75,314.077,405.95,313.85,406.184z
				 M227.505,414.561c-2.153,0.235-2.258,2.32,0.036,2.017C228.275,415.865,228.53,415.117,227.505,414.561z M294.979,394.937
				c0.163,0.302,0.316,0.584,0.477,0.88c2.058-0.411,1.865-1.937,1.136-2.284l-0.321-0.074
				C295.844,393.469,295.34,393.86,294.979,394.937z M219.175,394.796l-1.971,0.312c0.052,0.148,0.104,0.297,0.156,0.444
				C218.616,395.781,219.134,395.319,219.175,394.796z M234.153,404.441c0.341-1.007-0.169-1.488-0.833-1.913
				C230.64,402.943,232.169,404.933,234.153,404.441z M218.204,411.377c-0.181,0.71-0.671,0.921-1.193,1.095
				c0,0.288,0,0.535,0,0.808c0.445,0.198,0.836,0.458,1.208,0.794c0.478-0.299,0.859-0.591,1.033-1.144
				C218.939,412.27,218.863,411.9,218.204,411.377z M233.318,392.871c0.085-0.118,0.166-0.237,0.242-0.355l-1.053,0.167
				C232.661,392.909,233.11,392.873,233.318,392.871z M278.384,405.299c-1.217,0.488-1.505,1.676-0.943,2.274
				c0.413-0.028,0.858-0.045,1.323-0.055c-0.027-0.32,0.089-0.602,0.293-0.86C278.829,406.198,278.634,405.804,278.384,405.299z
				 M247.733,405.592c-0.536,0.306-0.377,0.86-0.659,1.21c0.251,0.336,0.47,0.63,0.687,0.92c1.402,0.349,1.397-0.8,1.258-1.85
				C248.54,405.767,248.112,405.674,247.733,405.592z M316.624,404.824c0.138-0.182,0.273-0.364,0.43-0.57
				c2.381,1.094,1.368-2.58-0.458-1.622C316.653,403.376,316.248,404.264,316.624,404.824z M268.15,398.109
				c0.648,1.65,2.009,0.545,2.25-0.823C269.55,396.55,268.024,396.96,268.15,398.109z M241.327,412.297
				c0.053,0.443-0.518,0.841-0.133,1.394c1.149,0.151,1.67-0.12,2.174-1.204C242.826,411.634,242.036,411.577,241.327,412.297z
				 M226.34,403.15c-0.064,0.681-0.064,0.681,0.398,1.84c0.631-0.079,1.065-0.376,1.478-0.65
				C228.48,403.168,227.159,402.282,226.34,403.15z M242.407,395.575c0.286-0.348,0.57-0.697,0.937-1.146
				C241.29,392.034,239.698,396.157,242.407,395.575z M278.257,389.856c0.197-0.115,0.413-0.242,0.659-0.386l-1.767-0.406
				C277.356,389.437,277.687,389.712,278.257,389.856z M235.078,424.432c0.227,0.542,0.447,1.07,0.728,1.742
				C238.891,425.005,236.106,422.838,235.078,424.432z M319.053,406.98c0.708,0.906,0.841,0.941,2.094,0.592
				c0-0.346,0-0.704,0-1.155C320.287,405.332,319.536,405.972,319.053,406.98z M253.211,393.787
				c-0.012,0.636-0.13,1.277,0.366,1.878C256.143,395.159,255.548,393.343,253.211,393.787z M230.07,393.715
				c-1.235-0.153-0.353,1.176-0.771,1.942C231.359,395.904,232.357,394.573,230.07,393.715z M268.185,391.019
				c-0.645,1.843,1.939,2.34,2.172,0.511C269.723,390.892,269.044,390.76,268.185,391.019z M285.282,406.157
				c-1.145-1.094-2.029,0.271-1.952,1.425c0.033,0.023,0.058,0.04,0.089,0.062c0.328,0.02,0.656,0.041,0.995,0.065
				c0.244-0.168,0.48-0.332,0.711-0.491C285.178,406.861,285.226,406.535,285.282,406.157z M306.368,397.078
				c-0.622-0.096-1.094-0.537-1.811-0.269c-0.058,0.43-0.106,0.787-0.15,1.12C305.785,399.322,306.368,398.998,306.368,397.078z
				 M244.658,414.978c-1.627,1.796,0.531,2.53,1.559,0.821C245.749,414.74,245.749,414.74,244.658,414.978z M312.074,402.932
				c-0.466-0.055-0.866-0.105-1.208-0.146c-0.271,0.236-0.514,0.448-0.894,0.779C310.989,405.085,313.134,405.1,312.074,402.932z
				 M267.356,406.967c-0.371-0.274-0.649-0.536-0.974-0.702c-0.322-0.166-0.304-0.738-0.856-0.638
				c-0.217,0.44-0.446,0.902-0.701,1.419C265.805,407.581,266.542,408.375,267.356,406.967z M239.554,414.827
				c-1.395-0.213-1.628,1.16-0.891,1.915c0.672,0.22,0.589-1.012,1.38-0.739C241.025,415.872,240.31,414.581,239.554,414.827z
				 M285.377,394.628c-0.878-1.077-1.11-1.133-2.263-0.424c0.313,0.483,0.481,0.847,0.592,1.376
				C284.846,395.675,284.957,395.611,285.377,394.628z M233.955,398.285c0.069-0.352,0.133-0.672,0.228-1.145
				C231.441,395.453,231.356,399.279,233.955,398.285z M224.847,430.291c-0.283-0.091-0.591-0.191-0.862-0.279
				c-0.635,0.3-0.964,0.595-1.09,0.858c0.664-0.137,1.325-0.279,1.982-0.435C224.865,430.385,224.864,430.344,224.847,430.291z
				 M217.631,425.597c0.423,0,0.82,0,1.251,0c0-0.375,0-0.694,0-1.025c-0.306-0.251-0.617-0.509-0.986-0.812
				C216.756,424.246,217.353,424.854,217.631,425.597z M211.683,431.882c0.889,0.262,1.36-0.219,1.804-1.009
				c-0.886-0.032-1.154-0.629-1.804-1.007c0,0.084,0,0.168,0,0.252c-0.189-0.041-0.379-0.082-0.54-0.117
				c-0.237,0.457-0.441,0.851-0.637,1.23C210.672,431.876,211.194,431.847,211.683,431.882z M211.683,407.694
				c0.436,0.072,0.873,0.144,1.284,0.211c0.728-0.964,0.585-1.878,0.115-2.731c-0.515,0-0.957,0-1.399,0c0,0.252,0,0.504,0,0.757
				c-0.157-0.043-0.315-0.084-0.54-0.143c-0.163,0.488-0.415,0.816-0.861,1.096C210.652,407.454,211.102,407.69,211.683,407.694z
				 M211.683,419.536c0.777,0.103,1.19,0.266,1.46-0.757c-0.328-0.566-0.788-0.94-1.46-1.007c0,0.084,0,0.168,0,0.252
				C210.577,418.145,210.406,420.475,211.683,419.536z M194.88,425.513c-0.462-1.371-0.521-2.557-2.28-2.052
				C191.27,425.095,193.483,427.259,194.88,425.513z M183.153,412.814c-0.789-1.943-2.745-1.913-3,0.299
				C181.29,414.616,182.243,414.053,183.153,412.814z M195.14,410.249c0.167,0.312,0.341,0.636,0.529,0.986c0.448,0,0.856,0,1.31,0
				C199.08,408.876,195.596,407.073,195.14,410.249z M189.431,422.712c0.872,0.662,1.637,0.513,2.366-0.115
				C192.267,419.582,188.951,420.197,189.431,422.712z M186.478,405.198c-0.212,1.059-0.223,2.716,1.044,3.032
				c0.313-0.549,0.779-0.956,1.386-1.207C188.706,405.668,187.647,405.398,186.478,405.198z M207.077,406.644
				c-0.423-1.45-2.792-1.581-2.882,0.121C205.048,408.17,206.934,408.296,207.077,406.644z M184.944,422.267
				c0.416-0.465,1.095-0.767,0.83-1.515c-0.46-0.207-0.899-0.133-1.421-0.213c-0.262,0.406-0.536,0.752-0.718,1.078
				c0.587,0.455,1.223,0.923,1.896,1.397c0.04-0.02,0.073-0.037,0.118-0.06C185.371,422.683,185.177,422.495,184.944,422.267z
				 M202.115,420.694c-0.618,0.415-0.875,0.706-0.432,1.328c0.322,0.666,0.462,1.242,1.343,1.322
				c0.355-0.283,0.737-0.588,1.18-0.941C204.184,421.165,203.137,420.965,202.115,420.694z M206.84,424.037
				c-1.624-1.115-3.364,0.59-1.726,2.057C206.316,426.24,206.926,425.642,206.84,424.037z M186.048,404.341
				c0.354-1.173-0.919-1.407-1.705-1.77c-0.527,0.492-0.853,1.083-0.906,1.831c0.361,0.392,0.839,0.552,1.324,0.787
				C185.116,404.819,185.592,404.535,186.048,404.341z M207.798,410.927c1.179,0.413,1.673-0.534,2.493-1.14
				c-0.534-0.385-1.095-0.564-1.264-1.218C207.78,407.369,207.418,410.078,207.798,410.927z M180.055,409.765
				c-0.056-0.117-0.118-0.219-0.184-0.312l-0.255,1.008C179.829,410.273,179.997,410.041,180.055,409.765z M200.46,423.971
				c-1.505-0.42-2.472,0.684-1.684,2.11C199.886,426.751,201.722,425.313,200.46,423.971z M200.295,405.348
				c-1.252-0.335-1.919,1.111-1.535,2.077c0.615,0.152,0.95,0.413,1.604,0.289c0.245-0.357,0.477-0.694,0.721-1.051
				C200.803,406.249,200.507,405.75,200.295,405.348z M184.732,414.576c-2.446,0.561-0.445,3.518,1.102,2.037
				C185.936,415.722,185.9,414.918,184.732,414.576z M187.071,424.058c0.619,0.403,1.274,0.804,1.951,1.203
				c0.004-0.014,0.012-0.025,0.015-0.039C188.85,424.178,187.823,423.669,187.071,424.058z M202.552,408.547
				c-1.003,0.255-1.265,2.544,0.182,2.256c0.001-0.01,0.002-0.023,0.002-0.033C204.602,411.165,204.245,408.241,202.552,408.547z
				 M200.215,414.013c1.112-0.659,0.046-3.764-0.987-2.255c-0.005,0.69-0.482,1.062-0.799,1.618
				C198.92,413.983,199.512,414.158,200.215,414.013z M209.912,415.829c-0.709-1.848-2.433-1.021-2.406,0.561
				C208.024,417.699,209.795,417,209.912,415.829z M197.868,422.516c-0.104-0.423-0.202-0.821-0.311-1.271
				c-1.449-0.512-1.449-0.512-2.259,0.522c0.055,0.589,0.554,0.89,0.836,1.413C196.711,422.866,197.409,423.073,197.868,422.516z
				 M205.03,411.949c-0.12,0.487-0.229,0.925-0.342,1.382C206.775,416.242,208.142,410.173,205.03,411.949z M197.451,398.529
				c0.16-0.101,0.25-0.218,0.312-0.339l-1.937,0.307c0.036,0.031,0.053,0.06,0.095,0.092
				C196.424,399.173,196.917,398.865,197.451,398.529z M208.794,399.129c2.395-0.995,1.127-2.659-1.01-2.098
				C207.924,397.851,207.546,399.383,208.794,399.129z M186.41,400.47c0.204,0.477,0.398,0.929,0.59,1.376
				c1.185,0.391,2.332-0.737,1.698-1.629c-0.325-0.174-0.716-0.349-1.088-0.417l-0.825,0.131
				C186.629,400.041,186.498,400.209,186.41,400.47z M194.854,401.013c-0.385-1.385-1.122-1.951-2.326-0.892
				C192.287,401.879,194.056,402.58,194.854,401.013z M178.496,414.888l-0.371,1.468c0.001,0.047,0.105,0.202,0.286,0.429
				c0.682,0.17,1.389-0.104,1.43-1.044C179.744,415.009,179.136,414.814,178.496,414.888z M194.027,420.328
				c0.9-1.223,0.931-1.451,0.333-2.312c-1.341,0.053-1.699-0.4-1.804,1.342C192.931,419.845,193.352,420.215,194.027,420.328z
				 M181.772,401.935c0.517-0.127,0.884-0.607,1.327-0.952c-0.07-0.16-0.144-0.303-0.22-0.433l-0.788,0.125L181.772,401.935z
				 M202.011,398.672c1.072,0.156,2.137-0.44,1.767-1.436l-2.354,0.373C201.405,398.078,201.453,398.606,202.011,398.672z
				 M200.154,401.839c0.632-0.553,1.006-0.72,0.586-2.061c-0.849-0.272-1.949-0.332-2.2,0.792
				C199.058,401.037,199.398,402.277,200.154,401.839z M189.668,415.09c-0.526,2.062,1.48,2.291,2.181,0.576
				C191.725,414.549,190.311,414.225,189.668,415.09z M204.171,415.836c-0.23-0.326-0.463-0.66-0.729-1.04
				c-0.616,0.133-1.253-0.155-1.917,0.302C201.778,416.955,203.059,417.427,204.171,415.836z M195.375,415.662
				c0.395,0.533,0.784,1.056,1.162,1.565c0.87-0.422,0.87-0.422,1.372-1.421C197.186,414.875,196.023,414.338,195.375,415.662z
				 M183.932,410.913c0.659-0.212,1.415,0.149,1.884-0.537c-0.027-1.882-1.418-1.906-2.46-0.623
				C183.669,410.159,183.484,410.681,183.932,410.913z M189.394,403.474c0.32,0.577,0.867,0.991,1.271,1.431
				C193.357,404.114,191.139,401.339,189.394,403.474z M186.425,412.318c0.246,0.787,0.668,1.414,1.486,1.71
				c0.562-0.232,0.775-0.712,0.924-1.222C188.648,411.776,186.892,411.307,186.425,412.318z M202.34,429.017
				c1.48-0.855,1.525-0.942,1.136-2.304C201.649,426.225,201.215,427.762,202.34,429.017z M203.287,402.559
				c-0.747,0.057-1.137,0.643-1.65,1.061c-0.02,0.281-0.041,0.566-0.068,0.937c0.946,0.946,1.815-0.177,2.367-1.041
				C203.715,403.113,203.655,402.77,203.287,402.559z M182.33,407.669c1.293-0.886,0.559-1.401-0.39-2.105
				C180.003,405.921,180.581,407.724,182.33,407.669z M197.082,429.083c0.512-0.856,0.849-1.656-0.009-2.411
				c-0.492,0.176-0.865,0.312-1.26,0.453c0,0.521-0.057,1.089,0.031,1.502c0.396,0.159,0.799,0.313,1.207,0.464
				C197.062,429.086,197.069,429.087,197.082,429.083z M182.398,419.71c0.143-0.404,0.275-0.783,0.411-1.171
				c-0.309-0.664-0.937-0.736-1.566-0.876c-0.406,0.362-0.5,0.85-0.675,1.355c0.166,0.155,0.337,0.312,0.519,0.476
				C181.561,419.676,181.909,420.007,182.398,419.71z M209.373,422.87c0.204-0.375,0.378-0.691,0.608-1.116
				c-0.551-1.526-2.12-0.706-2.491,0.486C208.002,422.802,208.713,422.712,209.373,422.87z M206.836,431.484
				c-0.109-0.769-0.597-1.144-1.232-1.61c-0.444,0.238-0.839,0.448-1.171,0.625c-0.046,0.281-0.031,0.496,0.026,0.665
				c0.734,0.141,1.478,0.269,2.237,0.375C206.744,431.521,206.788,431.504,206.836,431.484z M200.241,430.142
				c-0.151-0.083-0.319-0.133-0.493-0.147C199.911,430.046,200.076,430.094,200.241,430.142z M206.516,401.622
				c0.322-1.505-0.036-2.354-1.006-2.237c0.043,0.212,0.082,0.408,0.099,0.49C204.561,401.207,204.552,402.549,206.516,401.622z
				 M193.889,411.896c-0.027,0.319-0.048,0.561-0.081,0.959c-1.669-1.629-1.682,0.924,0.163,1.176
				c0.726-0.394,0.748-1.128,1.154-1.787C194.75,411.998,194.44,411.717,193.889,411.896z M199.65,417.353
				c-0.577,0.514-1.52,1.083-0.542,1.731c0.618,0.492,0.96,1.088,1.816,0.604C200.509,418.9,200.391,418.046,199.65,417.353z
				 M209.941,403.67c-0.9-0.243-1.024-1.653-2.033-0.485C206.912,404.704,209.788,405.487,209.941,403.67z M194.748,406.433
				c-0.284-0.188-0.586-0.387-0.894-0.59c-0.506,0.306-0.955,0.576-1.453,0.877C192.758,408.216,195.054,408.107,194.748,406.433z
				 M188.847,419.266c-0.581-1.004-2.086-1.413-2.372,0.04C187.44,420.676,187.861,420.466,188.847,419.266z M208.067,427.001
				c-1.045,1.276,0.272,1.988,1.345,1.803c0.393-0.352-0.123-1.011-0.043-1.527C208.895,427.176,208.467,427.086,208.067,427.001z
				 M204.814,418.083c-0.489,1.023,0.585,1.692,1.441,1.467C207.488,418.388,206.129,417.478,204.814,418.083z M190.033,408.991
				c-0.173,0.563-0.292,0.944-0.399,1.292C191.255,412.502,192.224,408.837,190.033,408.991z M196.136,402.789
				c-0.604,0.308-0.481,0.779-0.433,1.327c0.576,0.156,1.032,0.496,1.602,0.42c-0.279-0.508-0.279-0.508-0.216-1.417
				C196.766,403.008,196.427,402.889,196.136,402.789z M187.761,417.756c0.054,0.375,0.27,0.271,0.566,0.23
				C188.24,417.556,188.06,417.736,187.761,417.756z"/>
			<g>
				<path style="fill:#421B36;" d="M185.836,419.734c-3.892,11.004-7.367,22.525-8.691,34.167c-0.053,0.466,0.674,0.533,0.798,0.108
					c3.258-11.201,5.274-22.89,8.079-34.224C186.051,419.664,185.877,419.619,185.836,419.734L185.836,419.734z"/>
			</g>
			<g>
				<path style="fill:#421B36;" d="M252.228,448.25c9.008-2.033,18.001-4.12,26.979-6.282c0.729-0.176,0.42-1.302-0.31-1.125
					c-8.969,2.179-17.916,4.43-26.853,6.737C251.61,447.693,251.793,448.348,252.228,448.25L252.228,448.25z"/>
			</g>
		</g>
		<g>
			<path style="fill:#FFFFFF;" d="M178.09,366.496c0,0-6.714,25.269-1.764,31.988c4.949,6.719,29.206,40.215,80.004,5.659
				c17.156-11.671,26.712-6.978,44.086-3.795c25.979,4.759,27.102,3.111,27.102,3.111c-6.702-89.319-23.238-166.204-54.296-224.729
				c-9.395,11.334-25.938,13.272-49.624,1.323L178.09,366.496z"/>
			<path style="fill:#A0D2F4;" d="M293.6,280.418c-22.529,4.75-42.602,6.315-59.757,4.096l-2.568-37.461
				c21.044,0.738,40.995-0.566,59.757-4.096L293.6,280.418z"/>
			<path style="fill:#8380FF;" d="M431.735,223.788c-0.33-8.187-4.357-16.029-10.277-22.039
				c-6.611-6.711-14.645-14.671-25.62-20.788c-13.258-7.391-26.167-15.282-40.848-19.693l-16.807,29.295
				c0,0-39.07-9.558-55.263-10.936l-17.303-5.664c0,0-0.602,7.234,0.164,9.808c0.767,2.574,21.596,64.472,28.446,131.196
				c4.785,46.609,5.903,51.736,5.903,51.736c0.281,12.367,3.092,30.914,13.211,27.809c6.54-2.007,18.321-11.966,18.27-15.74
				l-2.164-4.076c-0.045-0.626,3.591-1.344,4.61-11.204c2.434-23.564-11.588-60.91-14.45-100.337
				c-0.156-2.155,0.008-6.919,0.32-12.836c28.067,3.025,55.483,7.162,83.19,1.701c6.476-1.277,13.114-2.856,18.374-6.632
				C428.416,240.417,432.065,231.975,431.735,223.788z"/>
			<path style="fill:#8380FF;" d="M240.188,272.339c-9.458-60.083-12.827-90.644-12.827-90.644
				c-7.507-3.457-15.138-6.698-21.509-2.619c0,0-42.146,42.642-31.918,88.938c3.844,17.398,10.933,62.64,14.133,60.179
				c6.149-4.729-17.033,34.246-17.061,40.322c-0.01,2.117,1.846,4.228,5.042,6.269c-1.081,2.065-4.682,9.324-3.032,11.44
				c1.929,2.475,50.7,19.989,60.586,15.959c2.852-1.163,8.739-12.814,8.739-12.814l-0.001,0c2.994-1.542,5.2-4.489,5.667-8.077
				c0.571-4.381,1.108-10.055,1.302-16.757C250.068,338.368,244.324,298.613,240.188,272.339z"/>
			<path style="opacity:0.3;fill:#421B36;" d="M212.968,333.643c-0.441,0.547-0.832,1.534-1.702,1.321
				c-0.714,0.071-0.995-0.757-1.418-1.185c0.156-0.839,0.755-0.892,1.418-0.831c0-0.084,0-0.168,0-0.252
				C211.917,332.829,212.545,333.002,212.968,333.643z M211.266,338.491c0,0.084,0,0.168,0,0.252
				c-0.653-0.245-0.908,0.686-1.209,1.025c0.2,0.71,0.58,1.019,1.209,0.99c0-0.084,0-0.168,0-0.252
				C213.199,340.452,213.163,338.71,211.266,338.491z M211.266,344.79c0,0.084,0,0.168,0,0.252c-1.381-0.7-1.148,2.267,0,2.268
				c0-0.337,0-0.673,0-1.009c0.412,0.088,0.823,0.158,1.211-0.081C212.337,345.137,212.278,345.067,211.266,344.79z
				 M214.058,347.698c-0.951,0.272-0.15,1.52-0.095,2.182c0.74,0.812,1.561-0.298,2.083-0.845
				C215.948,347.813,215.182,347.435,214.058,347.698z M219.675,355.531c0.29,0.082,0.543,0.204,0.791,0.311
				c0.137-0.685,0.259-1.374,0.366-2.067C219.979,353.378,219.006,353.982,219.675,355.531z M221.328,349.606
				c0.047-0.535,0.09-1.07,0.129-1.605c-0.946-0.667-2.265-0.292-2.073,1.155C219.913,350.025,220.766,350.091,221.328,349.606z
				 M221.201,344.049c0.19-0.098,0.324-0.213,0.429-0.338c-0.01-0.464-0.041-0.924-0.084-1.382
				c-0.342-0.281-0.687-0.564-1.021-0.838C218.979,342.79,219.083,343.789,221.201,344.049z M220.293,337.893
				c-0.271-0.501-0.583-0.97-0.932-1.409c-0.082,0.118-0.164,0.236-0.25,0.348C219.436,337.317,219.792,337.684,220.293,337.893z
				 M217.614,334.746c-0.34-0.271-0.692-0.53-1.063-0.767c-0.05,0.113-0.101,0.222-0.148,0.345
				C216.724,334.704,217.173,334.815,217.614,334.746z M213.596,342.067c-0.236,1.379-0.027,2.395,1.597,1.978
				c0.11-0.403,0.206-0.758,0.326-1.201C215.117,341.833,214.735,341.228,213.596,342.067z M213.658,335.925
				c-0.105,0.203-0.217,0.42-0.356,0.686c0.366,0.428,0.369,1.09,1,1.434c0.38-0.181,0.781-0.373,1.165-0.556
				c0.117-0.351,0.219-0.656,0.347-1.033C214.871,335.835,214.61,335.774,213.658,335.925z M217.604,350.702
				c-0.552,0.234-1.048,0.435-1.233,0.987c0.234,0.415,0.451,0.799,0.704,1.248C219.242,352.624,219.698,351.827,217.604,350.702z
				 M215.679,354.025c-0.411-0.09-0.807-0.177-1.21-0.266c-1.048,0.551-1.024,1.164-0.525,2.132c0.467,0,0.908,0,1.427,0
				C215.325,355.219,216.101,354.757,215.679,354.025z M218.435,346.451c-0.017-0.557-0.194-1.039-0.465-1.487
				c-1.421-0.152-1.421-0.152-1.81,1.049C216.701,346.557,217.878,347.297,218.435,346.451z M218.476,339.144
				c-2.079-1.291-2.673,3.163,0.006,1.471C218.348,340.066,218.325,339.634,218.476,339.144z M211.266,369.483
				c-0.188-0.043-0.376-0.086-0.525-0.119c-0.631,0.716-0.864,2.315,0.525,2.135c0.012,0.002,0.024,0.004,0.036,0.006
				c0.556-0.382,1.09-0.797,1.601-1.242c-0.13-0.31-0.359-0.598-0.516-0.898C211.976,369.407,211.62,369.445,211.266,369.483z
				 M211.266,362.931c0,0.084,0,0.168,0,0.252c-1.466,0.061-1.15,1.87,0,2.268c0-0.084,0-0.168,0-0.252
				c0.229,0.084,0.456,0.166,0.719,0.263C213.351,364.659,212.693,363.042,211.266,362.931z M218.573,358.144
				c-0.038-1.037-0.038-1.037-1.198-1.293c-0.583,0.307-1.586,0.524-1.07,1.293C216.45,359.522,218.586,359.532,218.573,358.144z
				 M213.606,366.442c-0.056,0.9-0.28,1.81,0.788,2.276c0.044-0.009,0.078-0.026,0.119-0.037c0.415-0.458,0.808-0.937,1.182-1.432
				C215.703,366.319,214.853,365.478,213.606,366.442z M216.395,363.666c-0.223,0.667,0.103,1.278,0.635,1.607
				c0.384-0.64,0.733-1.298,1.053-1.968C217.606,363.229,216.946,363.379,216.395,363.666z M215.737,360.554
				c-1.031-0.513-2.035-0.607-2.328,0.702C214.784,362.945,215.351,362.522,215.737,360.554z M209.798,350.794
				c0.327,0.914-0.046,2.511,1.467,2.059c2.14,0.009,1.963-2.07,0-2.268C210.792,350.366,209.607,349.819,209.798,350.794z
				 M182.233,357.106c-0.896-0.767-2.254-0.062-2.464,1.039c0.005,0.508,0.076,0.98,0.624,1.213
				c0.474-0.076,0.946-0.152,1.398-0.224c0.269-0.355,0.509-0.672,0.749-0.988C182.436,357.793,182.331,357.44,182.233,357.106z
				 M192.116,358.144c0.073,1.173,2.413,1.574,2.016,0c0.084,0,0.168,0,0.252,0c0.105-0.788-0.465-1.168-0.965-1.594
				c-0.938,0.122-1.174,0.929-1.555,1.594C191.948,358.144,192.032,358.144,192.116,358.144z M203.958,358.144
				c0.084,0,0.168,0,0.252,0c-0.108,1.526,1.833,1.249,1.511,0c0.252,0,0.504,0,0.757,0
				C206.567,356.139,204.35,356.598,203.958,358.144z M188.664,348.892c0.163,0.764,0.758,1.131,1.334,1.531
				c0.428-0.151,0.815-0.287,1.299-0.457C192.118,348.096,189.613,346.363,188.664,348.892z M185.67,346.716
				c0.65,0.732,1.403,0.129,2.254,0.048c0.918-1.306,0.129-2.05-1.264-2.113l-1.07,1.712
				C185.606,346.476,185.632,346.593,185.67,346.716z M185.467,353.364c-0.077-0.094-0.354-0.165-0.422-0.107
				c-0.714,0.823-2.382,0.601-2.215,2.017c0.065,1.178,2.801,1.145,2.43-0.162C184.705,354.289,185.643,354.033,185.467,353.364z
				 M200.579,339.177c-0.644-0.167-1.24-0.322-1.842-0.479c-1.287,0.832-0.689,1.803,0.214,2.631
				C199.982,341.222,200.973,340.293,200.579,339.177z M197.573,343.763c-0.099-0.351-0.472-0.63-0.409-1.094
				c0.068-0.501-0.257-0.702-0.715-0.86c-0.977-0.532-1.197,0.263-1.74,0.964C194.777,344.158,196.725,344.318,197.573,343.763z
				 M193.281,350.436c-0.4,0.132-0.712,0.237-0.993,0.33C190.163,354.695,196.896,353.085,193.281,350.436z M204.853,350.948
				c-1.084,0.145-0.792,1.254-0.337,1.924c0.424,0.571,1.226,0.053,1.829,0.061C207.268,351.435,206.393,350.595,204.853,350.948z
				 M200.105,332.488c-0.474,0.26-0.856,0.312-1.282,0.14c-0.939-0.114-0.758,1.648-0.291,2.107
				C199.837,335.806,201.478,333.66,200.105,332.488z M203.649,354.745c-0.338-0.33-0.69-0.675-1.021-0.999
				c-0.6,0.125-1.111,0.232-1.595,0.334C200.455,356.427,203.073,357.108,203.649,354.745z M185.232,348.013
				c-0.172-0.122-0.339-0.207-0.503-0.273l-1.291,2.065C184.423,350.452,185.738,349.547,185.232,348.013z M208.54,353.466
				c-0.433,0.208-0.88,0.422-1.389,0.669c0.07,0.654,0.127,1.183,0.185,1.708c0.549,0.108,1.033,0.202,1.54,0.3
				C210.128,355.453,209.623,353.991,208.54,353.466z M198.787,344.718c-1.492,0.681-0.775,2.039,0.601,2.407
				c0.387-0.537,1.377-0.895,1.251-1.567C200.244,344.89,199.567,344.349,198.787,344.718z M200.435,351.523
				c-0.658-2.002-3.627,0.103-1.83,1.498C199.676,353.496,200.659,352.715,200.435,351.523z M189.226,342.003
				c-0.142,0.597-0.436,1.11-0.315,1.696c0.295,0.207,0.562,0.396,0.869,0.611C192.165,343.681,191.573,341.102,189.226,342.003z
				 M209.706,342.69c-0.208-0.367-0.407-0.72-0.61-1.079c-0.452,0.027-1.062-0.148-1.289,0.271c-0.016,0.468-0.478,0.41-0.713,0.669
				c0,0.442,0,0.804,0,1.212C208.893,343.778,208.775,344.65,209.706,342.69z M202.689,338.004c1.095-0.51,1.09-2.296-0.252-2.389
				C200.682,335.955,200.755,339.004,202.689,338.004z M207.329,348.05c-0.033,0.467-0.122,0.957-0.25,1.418
				c0.363,0.298,0.707,0.581,1.051,0.864c0.488-0.505,0.98-0.838,1.613-1.064C209.456,347.991,208.905,347.72,207.329,348.05z
				 M194.407,333.344c-0.183-0.079-0.359-0.158-0.532-0.233l-1.138,1.82C193.451,335.033,194.253,334.397,194.407,333.344z
				 M209.107,331.405c-0.586-0.079-1.174-0.141-1.763-0.189C207.825,331.932,208.76,332.383,209.107,331.405z M206.019,334.644
				c0.344-0.954,0.358-1.792-0.806-2.345C203.328,333.251,203.889,335.458,206.019,334.644z M190.469,356.164
				c0.554-0.526,0.554-0.526,0.919-1.716C189.686,352.2,187.755,356.071,190.469,356.164z M181.375,353.139
				c1.069-0.423,1.227-0.961,0.909-1.488l-0.923,1.477C181.366,353.131,181.371,353.135,181.375,353.139z M204.306,346.591
				c0.364,0.248,0.674,0.458,1.133,0.771C208.464,346.058,203.454,343.064,204.306,346.591z M201.225,349.849
				c0.681-0.048,1.306,0.049,1.958-0.367c0.08-0.797,0.139-1.538-0.84-1.839c-0.488,0.201-0.993,0.369-1.368,0.75
				C201.063,348.905,201.143,349.368,201.225,349.849z M197.129,349.697c0-0.543,0-1.079,0-1.694
				c-1.404-0.144-1.685,0.031-2.148,1.236C195.768,350.155,196.408,350.461,197.129,349.697z M207.348,337.209
				c0.502,0.215,0.898,0.65,1.555,0.533c0.234-0.492,0.757-0.837,0.805-1.538c-0.424-0.252-0.876-0.519-1.371-0.812
				C207.871,335.944,207.026,336.237,207.348,337.209z M203.305,331.038c-0.702-0.014-1.405-0.029-2.107-0.044
				c0.022,0.226,0.045,0.458,0.07,0.717C202.392,331.945,203.064,331.538,203.305,331.038z M196.673,356.101
				c0.814-1.049,0.696-1.757-0.381-2.635c-1.411,0.541-0.213,1.458-1.062,2.383C195.721,355.935,196.16,356.011,196.673,356.101z
				 M203.278,343.531c0.398-1.26-1.798-2.315-2.196-0.921C201.056,344.019,202.621,344.495,203.278,343.531z M204.678,341.152
				c0.685-0.304,1.547-0.185,1.718-1.238c-0.326-0.34-0.667-0.695-0.974-1.014c-0.673,0.095-1.243,0.204-1.401,1.002
				C204.202,340.245,204.41,340.642,204.678,341.152z M193.945,344.912c-1.123-0.213-1.542,0.569-2.022,1.232
				c0.831,0.956,2.278,0.916,2.63-0.456C194.333,345.407,194.133,345.151,193.945,344.912z M194.069,340.694
				c0.026-1.37,0.144-2.427-1.659-1.618C190.979,339.922,192.975,341.277,194.069,340.694z M186.188,351.28
				c-0.073,0.24-0.143,0.472-0.234,0.768C187.645,355.602,189.557,349.742,186.188,351.28z M197.142,331.314
				c0-0.216-0.002-0.38-0.01-0.522c-0.562-0.052-1.123-0.116-1.683-0.199l-0.383,0.613
				C195.658,331.737,196.386,332.073,197.142,331.314z M196.604,337.814c0.232-0.76,0.232-0.76,1.026-1.261
				C196.144,334.676,193.531,336.724,196.604,337.814z M188.085,358.144c0.302-2.232-1.875-1.703-2.268,0
				c0.168,1.785,2.822,1.929,2.771,0C188.421,358.144,188.253,358.144,188.085,358.144z M200.431,358.144c-0.084,0-0.168,0-0.252,0
				c0.384-0.507,0.004-0.91-0.267-1.342c-1.091,0.145-1.963-0.2-2.001,1.342c0.452,0.355,0.611,0.991,1.191,1.262
				C199.626,359.088,200.595,358.944,200.431,358.144z M211.266,359.404c0,0.083,0,0.169,0,0.252
				c0.916,0.206,1.073-0.883,1.26-1.512c0.084,0,0.168,0,0.252,0c-0.016-0.384,0.156-0.806-0.172-1.099
				c-0.481,0.033-0.911,0.063-1.34,0.091c-0.554,0.242-1.404,0.277-1.511,1.008C209.976,358.971,210.485,359.233,211.266,359.404z
				 M173.016,366.477c0.076,0.093,0.161,0.175,0.242,0.263c-0.054-0.108-0.136-0.201-0.225-0.29L173.016,366.477z M179.411,360.485
				c-0.7-1.314-2.134-0.671-2.62,0.504C177.171,362.947,180.035,362.492,179.411,360.485z M185.115,362.129
				c0.151-0.283,0.302-0.568,0.505-0.947c-0.999-1.462-2.38-1.612-3.066,0.166c0.408,0.406,0.783,0.778,1.128,1.12
				C184.209,362.343,184.646,362.24,185.115,362.129z M201.469,368.427c0.728,0.261,1.331,0.084,1.967-0.455
				c-0.325-0.646,0.188-1.019-0.147-1.63c-0.602,0-1.254,0-1.896,0c-0.238,0.336-0.45,0.638-0.675,0.956
				C200.983,367.695,201.231,368.07,201.469,368.427z M181.198,365.503c1.59-0.062,1.494-2.487-0.27-2.49
				C179.356,362.91,179.842,365.788,181.198,365.503z M174.931,365.751c0.528-0.252,0.999-0.478,1.45-0.693
				c-0.02-0.942-0.312-1.663-1.185-2.044c-0.006,0.002-0.011,0.004-0.018,0.005l-1.054,1.685
				C174.38,365.061,174.718,365.358,174.931,365.751z M197.136,368.228c1.171-1.476-1.775-3.172-1.973-0.952
				C194.88,368.525,196.384,369.328,197.136,368.228z M193.472,365.505c1.524-0.278,0.989-2.111-0.244-2.478
				C191.47,363.527,191.592,365.441,193.472,365.505z M200.403,370.262c-0.957-1.465-2.586-1.62-2.448,0.488
				C198.291,372.175,200.298,371.471,200.403,370.262z M202.928,374.197c0.431-0.473,0.521-1.33-0.16-2.059
				c-1.034-0.344-1.954,0.773-1.767,1.766c0.083,0.103,0.168,0.19,0.253,0.267C201.813,374.206,202.371,374.213,202.928,374.197z
				 M200.17,364.941c0.446-2.285-1.649-2.443-2.462-0.623c0.297,0.451,0.66,0.834,1.126,1.142
				C199.281,365.286,199.703,365.121,200.17,364.941z M195.048,372.871c0.777,0.272,1.572,0.505,2.376,0.702
				C196.759,371.618,195.218,371.913,195.048,372.871z M190.768,362.457c0.84-0.937-0.091-2.96-1.59-2.313
				C188.609,361.246,189.614,363.463,190.768,362.457z M188.295,364.834c0.083-0.26,0.182-0.572,0.282-0.887
				c-0.24-0.317-0.465-0.612-0.71-0.936c-0.586,0.179-1.092,0.295-1.7,0.377c0.183,0.643,0.197,1.135-0.009,1.717
				C186.695,366.02,187.574,365.05,188.295,364.834z M192.59,369.27c0.164,0.775-0.816,1.228-0.258,2.01
				C195.215,371.947,195.248,368.475,192.59,369.27z M204.998,371.515c1.464,0.313,1.493-1.036,1.028-2.001
				C204.148,368.43,203.374,370.212,204.998,371.515z M201.616,360.278c-0.896,1.136-0.726,2.354,0.892,2.182
				c0.944-1.196,0.944-1.196,0.501-2.182C202.576,360.278,202.127,360.278,201.616,360.278z M190.65,368.52
				c0.931-0.752,0.943-0.859,0.311-2.38c-0.825-0.351-1.303,0.209-1.872,0.702C189.185,367.834,189.865,368.228,190.65,368.52z
				 M203.719,364.303c0.363,0.429,0.702,0.832,1.051,1.243C207.77,364.497,205.773,361.534,203.719,364.303z M209.424,366.629
				c-1.048-0.836-1.894,0.256-2.628,0.947C207.9,368.864,209.88,368.702,209.424,366.629z M184.884,366.637
				c-1.368-0.749-2.201-0.008-1.953,0.82c0.249-0.196,0.488-0.405,0.705-0.641c0.478,0.302,0.956,0.604,1.436,0.904
				C185.137,367.474,185.061,367.157,184.884,366.637z M178.87,367.995c1.548-1.765-1.731-2.356-2.103-0.322
				c0.412,0.294,0.776,0.555,1.383,0.987C178.3,368.231,178.471,368.097,178.87,367.995z M209.314,372.671
				c0.06-0.14,0.119-0.271,0.182-0.383c-1.123-0.881-1.695,0.319-2.337,1.146c0.005,0.028,0.009,0.058,0.014,0.087
				c0.042-0.013,0.086-0.02,0.129-0.034C207.997,373.266,208.666,372.989,209.314,372.671z M209.365,361.084
				c-0.135-1.067-1.328-1.204-2.09-0.656C206.974,362.578,208.332,362.796,209.365,361.084z M195.748,360.366
				c-0.232,0.797-0.323,1.561,0.146,2.284c0.684-0.045,1.011-0.527,1.518-0.824C197.334,360.627,196.756,360.24,195.748,360.366z"/>
			<path style="fill:#421B36;" d="M354.991,161.267c0,0-33.585,38.605-26.074,40.303
				C336.428,203.269,364.205,169.706,354.991,161.267z"/>
			<g>
				<path style="fill:#421B36;" d="M329.188,201.507c5.388,4.254,11.458,7.66,17.288,11.265c6.389,3.95,12.701,8.181,19.399,11.591
					c0.722,0.368,1.267-0.607,0.626-1.071c-5.817-4.209-12.148-7.746-18.287-11.458c-6.125-3.704-12.186-7.764-18.704-10.745
					C329.261,200.975,328.932,201.304,329.188,201.507L329.188,201.507z"/>
			</g>
			<g>
				<path style="fill:#421B36;" d="M355.248,217.686c2.728,6.278,6.058,11.956,11.148,16.612c0.554,0.507,1.337-0.273,0.825-0.825
					c-4.487-4.828-8.664-10.089-11.374-16.138C355.664,216.928,355.072,217.282,355.248,217.686L355.248,217.686z"/>
			</g>
			<path style="opacity:0.3;fill:#421B36;" d="M357.747,232.091c-0.469,0.116-0.938,0.233-1.436,0.357
				C352.53,230.008,359.962,228.534,357.747,232.091z M351.371,225.822c0.15-0.738,0.15-0.738,0.676-1.27
				c-0.259-0.419-0.639-0.731-1.076-1.105c-0.782,0.048-1.238,0.374-1.461,0.794c0.491,0.66,0.99,1.323,1.495,1.984
				C351.128,226.124,351.251,226,351.371,225.822z M354.719,216.488c0.294-0.421,0.303-0.809,0.152-1.127
				c-0.48-0.278-0.957-0.553-1.43-0.822c-0.557,0.002-1.051,0.319-1.048,1.096C352.198,216.934,354.19,218.093,354.719,216.488z
				 M352.391,221.843c-0.108,1.255,2.005,2.258,2.383,0.938C355.27,220.519,353.36,219.634,352.391,221.843z M373.468,231.582
				c0.555,1.152,2.355,1.307,2.354-0.365c-0.025-0.194-0.069-0.362-0.119-0.519c-0.31-0.346-0.637-0.693-0.976-1.041
				C374.019,229.52,373.272,230.216,373.468,231.582z M377.578,235.38c0.495,0.28,0.831-0.045,1.122-0.436
				c-0.323-0.654-0.723-1.318-1.191-1.988C376.61,233.786,376.085,234.583,377.578,235.38z M369.746,229.969
				c-3.219-0.503-3.432,2.824,0.046,1.862C370.293,231.213,370.477,230.634,369.746,229.969z M364.835,239.368
				c-0.096,0.33-0.199,0.679-0.295,1.009C367.014,244.234,368.787,236.958,364.835,239.368z M375.09,235.585
				c-1.142,0.361-1.142,0.361-1.526,1.444c0.191,0.278,0.4,0.581,0.617,0.898c0.397,0.098,0.796,0.199,1.284,0.322
				C376.785,237.47,376.334,236.104,375.09,235.585z M366.585,223.134c0.047-0.067,0.089-0.127,0.133-0.191
				c-0.744-0.537-1.503-1.068-2.274-1.595c-0.077,0.056-0.148,0.107-0.226,0.165C364.534,222.844,365.467,222.988,366.585,223.134z
				 M362.93,220.339c0.001-0.001,0.003-0.003,0.004-0.004c-0.356-0.235-0.713-0.469-1.072-0.701
				C362.18,219.894,362.551,220.099,362.93,220.339z M372.024,232.462c-1.577,0.432-2.123,2.308-0.456,2.898
				C373.021,234.647,373.653,233.375,372.024,232.462z M364.804,234.857c1.066,0.943,1.428,0.796,2.357-0.462
				C366.767,231.915,364.316,232.435,364.804,234.857z M342.694,208.862c-0.425-0.16-0.884-0.333-1.448-0.547
				c-0.358,0.589-0.657,1.08-0.98,1.613c0.117,1.095,2.275,1.587,2.47,0.443C342.49,209.863,342.927,209.401,342.694,208.862z
				 M344.331,214.226c1.671,0.665,2.443-2.418,0.656-2.396C343.294,212.115,342.895,213.163,344.331,214.226z M370.007,225.671
				c-0.001-0.076,0.001-0.154,0.005-0.231c-0.584-0.467-1.187-0.932-1.802-1.395C366.626,224.903,368.274,227.161,370.007,225.671z
				 M362.673,229.526c-1.969,1.143-1.283,3.39,1.022,2.325C364.084,230.917,363.939,229.742,362.673,229.526z M370.602,227.372
				c0.07,1.176,0.578,1.719,1.763,1.831c0.245-0.408,0.585-0.702,0.74-1.119c-0.55-0.507-1.126-1.013-1.724-1.519
				C371.155,226.679,370.905,226.927,370.602,227.372z M359.856,235.418c0.416-0.315,0.843-0.639,1.385-1.05
				c-0.236-0.481-0.436-0.886-0.66-1.343C358.402,232.135,357.728,234.83,359.856,235.418z M379.399,236.771
				c-0.009,0.05-0.024,0.092-0.028,0.146c-0.022,0.23,0.059,0.45,0.197,0.65C379.528,237.303,379.47,237.038,379.399,236.771z
				 M372.045,244.573c-0.057,0.1-0.13,0.184-0.21,0.261c0.193,0.036,0.384,0.066,0.572,0.087
				C372.298,244.795,372.178,244.677,372.045,244.573z M359.749,220.652c-0.313,0.209-0.653,0.437-0.965,0.645
				c-0.096,0.402-0.183,0.761-0.289,1.197c1.048,1.134,1.275,1.152,2.325,0.224C360.875,221.912,360.848,220.881,359.749,220.652z
				 M361.634,225.66c0.968,1.532,2.338,0.264,2.54-1.05c-0.391-0.312-0.743-0.593-1.082-0.86
				C361.693,224.022,361.729,224.388,361.634,225.66z M358.856,228.692c1.188,0.857,2.495-0.242,2.053-1.627
				C359.589,225.803,357.886,227.194,358.856,228.692z M346.522,215.747c-0.327,0.982,0.316,1.21,1.142,1.672
				C351.005,215.185,346.249,213.728,346.522,215.747z M369.252,241.824c-0.716,0.242-1.792,0.181-1.851,1.145
				c0.681,0.419,1.349,0.775,2.002,1.07C370.159,243.292,370.257,242.585,369.252,241.824z M364.392,228.134
				c0.727,1.489,3.11,0.985,2.7-0.715C365.35,226.704,364.887,226.831,364.392,228.134z M355.102,227.876
				c-1.006-1.146-2.589-1.019-2.43,0.489c0.22,0.277,0.44,0.554,0.662,0.83C354.044,229.442,354.769,228.985,355.102,227.876z
				 M351.393,213.389c-0.599-0.332-1.187-0.654-1.766-0.968c-0.098,0.127-0.203,0.286-0.363,0.531
				C349.697,214.317,350.784,214.027,351.393,213.389z M357.923,218.732c-0.135-0.367-0.26-0.703-0.391-1.057
				c-0.904-0.113-1.636,0.693-2.237,1.283c0.118,0.898,0.868,1.037,1.425,1.413C357.071,219.687,357.39,219.248,357.923,218.732z
				 M358.122,224.755c-0.27-0.255-0.529-0.499-0.792-0.747c-0.332,0.209-0.576,0.488-0.953,0.286
				c-0.448-0.178-0.781,0.387-1.134,0.575C355.835,226.859,357.462,226.474,358.122,224.755z M375.773,243.686
				c0.064-0.46,0.107-0.906-0.107-1.445c-0.412-0.137-0.872-0.292-1.384-0.464C372.818,243.437,373.793,244.67,375.773,243.686z
				 M349.512,218.444c-0.016,2.877,3.387,1.337,1.926-0.548C350.74,217.907,350.047,217.663,349.512,218.444z M372.21,238.85
				c-0.994,0.119-1.259,0.861-1.727,1.622c0.292,0.262,0.598,0.537,0.976,0.877C373.017,240.849,373.518,239.961,372.21,238.85z
				 M370.161,236.856c-0.301-0.619-0.963-0.578-1.54-0.865C365.884,236.869,369.454,239.792,370.161,236.856z M345.425,218.194
				c-0.092-0.024-0.194-0.05-0.289-0.075c0.171,0.247,0.343,0.497,0.518,0.748C345.64,218.667,345.573,218.443,345.425,218.194z
				 M376.895,239.255c-0.177,0.652,0.092,1.194,0.335,1.694c0.608,0.232,1.026-0.119,1.535-0.269
				c0.08-0.248,0.166-0.517,0.256-0.795c-0.178-0.339-0.352-0.667-0.53-1.006C377.793,238.69,377.309,238.848,376.895,239.255z
				 M348.367,221.079c-0.511-0.321-0.837-0.207-1.132,0.036c0.329,0.461,0.664,0.925,1.003,1.392
				C348.574,222.038,348.83,221.512,348.367,221.079z M339.581,207.268c-1.335-0.644-2.115-1.002-2.115-1.002
				s0.245,0.412,0.695,1.148C338.799,207.828,339.173,207.77,339.581,207.268z M362.116,238.191
				c1.502-0.662,1.994-0.183,1.496-2.083c-0.172-0.089-0.357-0.184-0.636-0.33c-0.281,0.193-0.541,0.372-0.764,0.544
				C362.617,237.115,361.013,237.578,362.116,238.191z"/>
			<g>
				<path style="fill:#421B36;" d="M264.966,166.243c11.166,11.312,20.163,24.132,19.775,40.745c-0.029,1.236,1.883,1.234,1.919,0
					c0.447-15.4-8.057-33.002-21.444-41.069C265.014,165.796,264.801,166.076,264.966,166.243L264.966,166.243z"/>
			</g>
			<g>
				<path style="fill:#421B36;" d="M196.586,178.55c1.339,6.427,6.064,11.257,10.379,15.915
					c6.889,7.436,13.398,14.772,17.197,24.324c0.4,1.006,2.041,0.587,1.651-0.455c-3.054-8.18-8.295-14.864-14.346-21.054
					c-5.459-5.585-12.438-10.981-14.696-18.78C196.737,178.379,196.561,178.429,196.586,178.55L196.586,178.55z"/>
			</g>
			<g>
				<path style="fill:#421B36;" d="M243.876,388.542c4.356-27.652,2.481-56.15-0.01-83.893
					c-2.581-28.752-6.791-57.324-10.874-85.891c-1.737-12.156-3.487-24.318-4.731-36.536c-0.116-1.138-1.903-1.161-1.801,0
					c2.033,23.241,6.319,46.327,9.542,69.421c4.251,30.467,8.127,61.126,9.122,91.899c0.484,14.972,0.362,30.082-1.553,44.959
					C243.55,388.672,243.849,388.714,243.876,388.542L243.876,388.542z"/>
			</g>
			<g>
				<path style="fill:#421B36;" d="M319.852,259.569c0.756-14.399,4.455-30.315,0.336-44.447c-0.185-0.634-1.066-0.358-0.968,0.267
					c2.32,14.766-0.28,29.379,0.336,44.18C319.564,259.759,319.841,259.759,319.852,259.569L319.852,259.569z"/>
			</g>
			<g>
				<path style="fill:#421B36;" d="M309.568,185.133c4.062,7.626,6.307,15.465,7.046,24.06c0.06,0.691,1.133,0.708,1.093,0
					c-0.493-8.661-3.198-16.917-7.807-24.254C309.768,184.73,309.452,184.915,309.568,185.133L309.568,185.133z"/>
			</g>
			<g>
				<path style="fill:#421B36;" d="M175.064,374.623c9.855,5.713,20.144,11.593,31.455,13.726
					c11.294,2.129,23.358,3.68,34.849,2.702c0.657-0.056,0.672-1,0-1.034c-11.886-0.588-23.71-0.952-35.431-3.301
					c-11.066-2.217-20.293-8.572-30.56-12.836C174.945,373.701,174.675,374.398,175.064,374.623L175.064,374.623z"/>
			</g>
			<g>
				<path style="fill:#421B36;" d="M303.142,387.335c10.429-0.19,21.577-5.065,28.061-13.43c0.599-0.772-0.365-1.835-1.107-1.107
					c-7.788,7.645-15.983,12.267-26.955,13.577C302.546,386.446,302.507,387.346,303.142,387.335L303.142,387.335z"/>
			</g>
			<g>
				<g>
					<path style="fill:#FFFFFF;" d="M275.273,194.186c5.387,26.327,14.59,52.242,24.732,77.108c0.433,1.063,2.18,0.614,1.751-0.483
						c-4.924-12.592-9.593-25.298-14.029-38.07c-4.373-12.591-9.52-25.541-12.198-38.627
						C275.495,193.948,275.238,194.019,275.273,194.186L275.273,194.186z"/>
				</g>
				<path style="fill:#FFFFFF;" d="M302.964,271.904c-0.225-0.715-0.928-1.201-1.663-1.29l0.02-0.004
					c-1.513-0.556-2.344,0.823-2.266,1.943c0.079,1.12,1.23,2.05,2.338,1.871C302.501,274.245,303.302,272.974,302.964,271.904z"/>
				<g>
					<path style="fill:#FFFFFF;" d="M300.8,273.558c0.436,2.086,0.873,4.171,1.316,6.255c0.219,1.029,1.906,0.575,1.58-0.436
						c-0.653-2.026-1.311-4.051-1.971-6.075C301.533,272.714,300.674,272.953,300.8,273.558L300.8,273.558z"/>
				</g>
			</g>
			<g>
				<g>
					<path style="fill:#FFFFFF;" d="M224.974,198.015c1.955,27.092-1.443,54.492,1.831,81.494c0.09,0.744,1.248,0.783,1.196,0
						c-1.809-27.121,0.561-54.465-2.569-81.494C225.399,197.729,224.953,197.716,224.974,198.015L224.974,198.015z"/>
				</g>
				<g>
					<path style="fill:#FFFFFF;" d="M226.913,280.452c0.041,0,0.082,0.001,0.123,0c0.422-0.007,0.605-0.098,0.984-0.271
						c0.079-0.036,0.157-0.072,0.236-0.109c0.211-0.114,0.38-0.269,0.507-0.466c0.16-0.175,0.268-0.38,0.324-0.615
						c0.021-0.16,0.043-0.321,0.065-0.481c0.009-0.249-0.043-0.481-0.156-0.697c-0.043-0.153-0.12-0.286-0.233-0.399
						c-0.128-0.197-0.297-0.352-0.507-0.466c-0.144-0.061-0.288-0.122-0.432-0.182c-0.321-0.086-0.641-0.086-0.962,0
						c-0.084,0.025-0.167,0.049-0.25,0.075c-0.391,0.12-0.562,0.232-0.866,0.494c-0.03,0.026-0.06,0.053-0.09,0.079
						c-0.093,0.12-0.186,0.24-0.278,0.36c-0.06,0.142-0.12,0.283-0.179,0.425c-0.021,0.158-0.042,0.315-0.064,0.473
						c-0.009,0.245,0.042,0.473,0.153,0.685c0.042,0.151,0.119,0.281,0.229,0.393c0.079,0.134,0.185,0.24,0.319,0.319
						c0.111,0.11,0.242,0.186,0.393,0.229C226.44,280.411,226.668,280.462,226.913,280.452L226.913,280.452z"/>
				</g>
				<g>
					<path style="fill:#FFFFFF;" d="M226.835,279.611c-0.199,1.039-0.237,2.09,0.04,3.117c0.342,1.269,2.336,0.499,1.687-0.711
						c-0.34-0.634-0.526-1.324-0.403-2.041C228.307,279.116,227.003,278.738,226.835,279.611L226.835,279.611z"/>
				</g>
			</g>
			<g>
				<path style="fill:#421B36;" d="M219.234,341.671c4.883-7.018,8.045-14.674,9.51-23.098c0.139-0.798-1.081-1.143-1.224-0.337
					c-1.468,8.25-4.534,15.934-9.178,22.913C217.97,341.707,218.858,342.211,219.234,341.671L219.234,341.671z"/>
			</g>
			<g>
				<path style="fill:#421B36;" d="M307.708,310.969c5.559,5.667,11.661,11.264,18.666,15.093c0.636,0.347,1.094-0.527,0.551-0.943
					c-6.311-4.845-12.725-9.357-18.476-14.891C307.962,309.759,307.234,310.486,307.708,310.969L307.708,310.969z"/>
			</g>
			<g>
				<path style="fill:#A0D2F4;" d="M312.192,227.26c1.64,6.519-3.726,13.695-6.902,14.379c-1.434,0.308-9.963-3.995-11.603-10.514
					c-1.64-6.519,2.398-12.373,7.425-12.69C305.721,218.144,310.552,220.741,312.192,227.26z"/>
				<path style="fill:#421B36;" d="M306.791,228.188c0.739-0.667,2.695-1.308,3.558-0.812c0.851,4.087-2.07,6.899-4.65,6.379
					c-0.51-0.886-0.653-1.967-0.44-2.967C305.472,229.788,306.031,228.873,306.791,228.188z"/>
				<path style="fill:#421B36;" d="M299.386,234.061c0.924,0.372,2.98,0.302,3.62-0.46c-0.605-4.13-4.315-5.768-6.559-4.392
					c-0.174,1.008,0.063,2.072,0.607,2.937C297.598,233.012,298.437,233.679,299.386,234.061z"/>
			</g>
			<g>
				<path style="fill:#421B36;" d="M273.798,212.668c16.023,56.893,21.643,115.712,28.679,174.187c0.1,0.832,1.411,0.86,1.329,0
					c-2.758-28.984-6.108-57.95-10.552-86.727c-4.559-29.515-10.068-59.051-18.971-87.594
					C274.187,212.227,273.71,212.355,273.798,212.668L273.798,212.668z"/>
			</g>
			<g>
				<path style="fill:#421B36;" d="M331.404,201.842c7.764-3.94,14.291-11.501,19.031-18.649c3.759-5.669,8.438-14.359,5.996-21.374
					c-0.281-0.808-1.568-0.724-1.551,0.21c0.304,17.411-12.326,28.106-23.78,39.419
					C330.891,201.655,331.155,201.969,331.404,201.842L331.404,201.842z"/>
			</g>
		</g>
		<g>
			<path style="fill:#CC8770;" d="M304.665,133.996c-1.625-2.783-2.712-5.802-4.407-8.552c-0.933-1.514-2.282-3.071-4.272-3.275
				c-1.702-0.174-3.431,0.766-4.363,2.054c-0.933,1.287-1.177,2.853-1.091,4.341c0.259,4.486,3.221,12.108,7.897,13.908
				l13.482-1.825C308.599,139.414,306.291,136.779,304.665,133.996z"/>
			<g>
				<path style="fill:#421B36;" d="M291.925,136.014c0.623-4.318,0.059-9.435-0.809-13.699c-0.103-0.506-0.946-0.399-0.909,0.123
					c0.313,4.405,0.607,9.273,1.575,13.577C291.797,136.081,291.914,136.087,291.925,136.014L291.925,136.014z"/>
			</g>
			<g>
				<path style="fill:#421B36;" d="M294.047,122.844c-0.643,1.584-0.472,3.452,0.356,4.937c0.837,1.5,2.382,2.512,4.075,2.756
					c0.98,0.141,1.985,0.06,2.91-0.308c0.329-0.131,0.56-0.439,0.458-0.807c-0.086-0.313-0.476-0.59-0.807-0.458
					c-1.626,0.647-3.576,0.32-4.826-0.938c-1.25-1.258-1.559-3.212-0.901-4.833c0.133-0.329-0.145-0.721-0.458-0.807
					C294.478,122.283,294.18,122.514,294.047,122.844L294.047,122.844z"/>
			</g>
			<path style="fill:#CC8770;" d="M355.547,171.146c-1.697-1.466-23.435-12.266-27.917-14.486l-8.62-9.301
				c-0.767-0.425-11.513-14.622-24.815-15.952c-12.5-1.25-33.88,3.336-36.294,7.481c-2.415,4.145,1.449,6.893,6.895,6.899
				c7.36,0.008,17.784-1.241,17.784-1.241s-10.857,6.207-1.146,12.445c0,0-3.788,7.401,3.511,8.548c0,0-1.086,5.47,3.049,7.584
				c4.135,2.114,11.205-0.49,10.769-0.023c-0.432,0.463,15.844,5.025,22.206,4.25c7.536,5.59,18.319,13.365,20.476,13.723
				C344.829,191.636,357.017,172.415,355.547,171.146z"/>
			<g>
				<path style="fill:#421B36;" d="M257.713,139.539c1.107,1.665,2.685,2.826,4.703,3.072c1.003,0.122,2.087-0.041,2.908-0.663
					c0.844-0.639,1.241-1.639,1.388-2.66c0.196-1.366,0.1-2.756-0.236-4.093c-0.206-0.819-1.472-0.472-1.266,0.349
					c0.298,1.186,0.416,2.482,0.188,3.693c-0.189,1.004-0.668,1.805-1.717,2.037c-1.945,0.431-3.811-0.857-4.836-2.398
					C258.38,138.177,257.243,138.833,257.713,139.539L257.713,139.539z"/>
			</g>
			<g>
				<path style="fill:#421B36;" d="M280.928,157.817c4.164-2.293,8.151-2.898,12.783-1.822c0.716,0.166,0.961-0.824,0.298-1.082
					c-4.437-1.727-9.848-0.609-13.152,2.812C280.81,157.773,280.869,157.849,280.928,157.817L280.928,157.817z"/>
			</g>
			<g>
				<path style="fill:#421B36;" d="M280.701,145.657c3.891-0.893,7.235-1.24,11.201-0.59c0.795,0.13,1.154-1.02,0.34-1.234
					c-3.774-0.993-8.334-0.63-11.735,1.365C280.258,145.344,280.426,145.72,280.701,145.657L280.701,145.657z"/>
			</g>
			<g>
				<path style="fill:#421B36;" d="M284.929,165.144c1.703,0.204,3.45-0.088,5.177,0.075c1.961,0.185,3.879,0.607,5.811,0.972
					c0.878,0.166,1.256-1.177,0.371-1.348c-3.26-0.63-8.469-2-11.427,0.053C284.748,164.975,284.798,165.128,284.929,165.144
					L284.929,165.144z"/>
			</g>
			<g>
				<path style="fill:#421B36;" d="M327.962,156.093c0.187,0.119-0.138-0.145-0.226-0.24c-0.24-0.258-0.482-0.516-0.721-0.776
					c-0.781-0.85-1.559-1.704-2.346-2.549c-2.383-2.561-4.827-5.066-7.367-7.473c-5.639-5.344-12.109-11.118-19.637-13.559
					c-3.754-1.217-7.922-1.061-11.814-0.845c-4.853,0.269-9.7,0.954-14.449,1.988c-3.777,0.822-7.688,1.802-11.143,3.586
					c-2.379,1.228-4.65,3.63-3.452,6.547c1.945,4.74,9.516,3.72,13.469,3.503c4.108-0.225,8.217-0.585,12.303-1.073
					c-0.11-0.408-0.221-0.815-0.331-1.223c-1.845,1.064-3.645,2.646-4.688,4.514c-2.088,3.741,0.399,6.984,3.542,9.064
					c-0.078-0.299-0.157-0.598-0.235-0.898c-0.684,1.352-1.119,2.957-1.069,4.475c0.096,2.921,2.241,4.557,4.971,5.037
					c-0.153-0.269-0.306-0.538-0.458-0.807c-0.574,2.995,0.286,6.533,3.05,8.161c2.009,1.183,4.537,1.222,6.789,0.981
					c0.976-0.104,1.945-0.267,2.907-0.464c0.379-0.077,0.757-0.164,1.136-0.243c0.16-0.033,0.638-0.026,0.409-0.112
					c-0.153-0.153-0.306-0.305-0.458-0.458c0.017-0.153,0.035-0.307,0.052-0.46c-0.471,0.704,0.665,1.361,1.133,0.662
					c0.856-1.278-1.382-0.919-1.848-0.818c-2.131,0.459-4.317,0.846-6.504,0.641c-2.494-0.233-4.57-1.51-5.244-4.015
					c-0.299-1.111-0.373-2.388-0.156-3.526c0.062-0.322-0.087-0.742-0.458-0.807c-2.435-0.428-4.16-1.755-3.998-4.369
					c0.068-1.09,0.385-2.238,0.88-3.215c0.167-0.33,0.075-0.692-0.235-0.898c-1.564-1.035-3.349-2.445-3.667-4.426
					c-0.211-1.314,0.333-2.576,1.094-3.619c0.96-1.316,2.308-2.453,3.719-3.266c0.525-0.303,0.341-1.303-0.331-1.223
					c-3.031,0.361-6.074,0.641-9.117,0.866c-2.51,0.185-5.025,0.33-7.542,0.367c-2.239,0.032-4.728-0.04-6.639-1.373
					c-1.62-1.13-1.889-3.14-0.685-4.73c0.651-0.86,1.776-1.4,2.72-1.859c3.42-1.662,7.248-2.585,10.95-3.368
					c4.472-0.945,9.02-1.576,13.585-1.83c3.776-0.211,7.822-0.383,11.465,0.798c7.121,2.309,13.26,7.775,18.617,12.806
					c2.698,2.533,5.287,5.18,7.808,7.889c0.815,0.876,1.619,1.76,2.429,2.641c0.346,0.375,0.692,0.851,1.129,1.129
					C328.014,157.681,328.673,156.546,327.962,156.093L327.962,156.093z"/>
			</g>
			<g>
				<path style="fill:#421B36;" d="M331.404,201.842c7.764-3.94,14.291-11.501,19.031-18.649c3.759-5.669,8.438-14.359,5.996-21.374
					c-0.281-0.808-1.568-0.724-1.551,0.21c0.304,17.411-12.326,28.106-23.78,39.419
					C330.891,201.655,331.155,201.969,331.404,201.842L331.404,201.842z"/>
			</g>
		</g>
		<g>
			<path style="fill:#421B36;" d="M129.904,365.602c0,0,3.811,4.262,15.554-3.983c13.507-9.484,17.016-43.484,12.832-44.271
				C154.106,316.561,125.617,347.64,129.904,365.602z"/>
			<g>
				<path style="fill:#CC8770;" d="M140.764,310.583c6.352-0.474,24.247,15.115,32.014,21.503
					c1.835-3.167,6.188-10.855,10.993-12.077c11.304-2.876,38.59,7.017,37.324,15.785c-0.657,4.548-3.601,4.768-3.601,4.768
					s2.507,4.076,0.569,7.686c-2.36,4.396-6.281,1.307-6.281,1.307s4.406,6.287-5.94,8.197c0,0,2.971,6.587-4.817,7.461
					c-9.81,1.101-22.842-6.299-22.842-6.299s-2.395,6.711-6.026,6.688c-6.106-0.04-43.409-20.918-46.709-25.374
					C122.146,335.772,132.732,311.182,140.764,310.583z"/>
				<g>
					<path style="fill:#421B36;" d="M174.847,329.415c-4.022,4.004-6.811,9.496-9.377,14.5c-0.406,0.791,0.754,1.482,1.198,0.7
						c2.804-4.936,6.226-9.829,8.326-15.114C175.029,329.415,174.905,329.357,174.847,329.415L174.847,329.415z"/>
				</g>
				<g>
					<path style="fill:#421B36;" d="M187.893,328.826c10.466,2.572,20.507,6.609,29.838,12.003c0.732,0.423,1.394-0.71,0.662-1.133
						c-9.424-5.447-19.581-9.537-30.151-12.135C187.422,327.358,187.072,328.624,187.893,328.826L187.893,328.826z"/>
				</g>
				<g>
					<path style="fill:#421B36;" d="M212.795,349.722c-8.354-4.858-17.306-8.613-26.626-11.168
						c-0.816-0.224-1.164,1.042-0.349,1.266c9.217,2.526,18.052,6.231,26.313,11.035
						C212.865,351.28,213.526,350.147,212.795,349.722L212.795,349.722z"/>
				</g>
				<g>
					<path style="fill:#421B36;" d="M206.081,357.382c-8.774-3.474-17.697-6.554-26.746-9.233c-0.812-0.24-1.158,1.026-0.349,1.266
						c9.049,2.679,17.972,5.759,26.746,9.233C206.518,358.958,206.859,357.689,206.081,357.382L206.081,357.382z"/>
				</g>
				<g>
					<path style="fill:#421B36;" d="M215.874,328.429c-1.661,1.579-2.177,4.146-1.256,6.242c0.906,2.063,3.202,3.393,5.438,3.217
						c0.836-0.066,0.843-1.379,0-1.312c-1.754,0.138-3.529-0.827-4.256-2.457c-0.714-1.601-0.251-3.57,1.002-4.761
						C217.415,328.774,216.486,327.847,215.874,328.429L215.874,328.429z"/>
				</g>
				<g>
					<path style="fill:#421B36;" d="M211.697,336.901c-2.298,1.696-2.698,4.914-1.192,7.277c1.641,2.574,4.739,3.582,7.674,3.323
						c0.835-0.074,0.842-1.387,0-1.312c-2.362,0.208-4.938-0.416-6.383-2.439c-1.231-1.722-1.266-4.364,0.564-5.715
						c0.287-0.212,0.424-0.566,0.235-0.898C212.434,336.853,211.981,336.691,211.697,336.901L211.697,336.901z"/>
				</g>
				<g>
					<path style="fill:#421B36;" d="M204.264,345.753c-1.884,1.785-1.781,4.766-0.283,6.749c1.741,2.303,4.597,3.101,7.364,3.243
						c0.844,0.043,0.842-1.269,0-1.312c-2.263-0.116-4.652-0.704-6.164-2.516c-1.243-1.489-1.48-3.822,0.011-5.235
						C205.807,346.098,204.877,345.171,204.264,345.753L204.264,345.753z"/>
				</g>
				<g>
					<path style="fill:#421B36;" d="M195.416,355.324c0.112,2.438,1.427,4.746,3.52,6.024c2.224,1.358,5.103,1.352,7.373,0.115
						c0.742-0.404,0.08-1.538-0.662-1.133c-1.866,1.017-4.225,0.998-6.048-0.115c-1.688-1.031-2.779-2.922-2.87-4.891
						C196.689,354.483,195.377,354.478,195.416,355.324L195.416,355.324z"/>
				</g>
			</g>
			<path style="fill:#8380FF;" d="M195.679,183.11c0,0-12.574-1.295-34.336,15.928c-17.104,13.536-85.41,64.297-87.672,100.732
				c-1.785,28.757,56.232,65.832,56.232,65.832c-1.349-7.851,14.395-40.163,28.386-48.254l-18.238-17.578
				c5.307-0.713,10.49-1.691,4.187-8.541l39.844-27.333L195.679,183.11z"/>
			<path style="opacity:0.3;fill:#421B36;" d="M118.979,276.49c-1.063,2.745-4.329-0.208-1.71-1.663
				C118.355,274.966,118.677,275.682,118.979,276.49z M135.931,289.902c1.253-0.21,1.21-1.656,0.585-2.527
				C134.643,285.649,133.562,289.753,135.931,289.902z M120.554,286.619c0.822-0.203,1.275-0.703,1.507-1.499
				c-0.212-0.298-0.448-0.63-0.656-0.922c-0.609,0-1.144,0-1.677,0c-0.381,0.563-0.519,1.151-0.654,1.774
				C119.621,286.211,120.109,286.425,120.554,286.619z M137.946,296.941l1.683,1.534
				C140.822,296.405,138.696,295.237,137.946,296.941z M110.141,276.801c0.805,1.524,2.9,1.052,2.709-0.772
				c-0.313-0.292-0.644-0.603-0.951-0.891C110.434,275.536,110.434,275.536,110.141,276.801z M108.476,280.827
				c0.756-0.312,1.234-0.832,1.427-1.685c-1.108-1.403-2.112-1.796-2.68,0.257C107.682,279.899,107.815,280.584,108.476,280.827z
				 M111.675,280.925c-0.461,0.299-1.048,0.364-1.403,0.927c0.004,0.011,0.009,0.023,0.013,0.035c0.753,0.38,1.506,0.76,2.259,1.14
				C113.232,282.185,113.196,281.109,111.675,280.925z M133.782,284.913c-0.273-0.324-0.513-0.609-0.839-0.996
				C128.652,285.061,134.751,288.927,133.782,284.913z M116.098,282.445c0.954,1.165,1.593,1.266,2.7,0.411
				C118.559,280.664,116.782,280.135,116.098,282.445z M114.466,283.996c0.336,0.17,0.673,0.34,1.009,0.509
				c-0.195-0.214-0.481-0.408-0.875-0.559C114.549,283.959,114.515,283.982,114.466,283.996z M138.578,292.89
				c0.23-0.153,0.454-0.291,0.67-0.432c-0.331-0.785-0.691-1.558-1.079-2.316c-0.366,0.277-0.524,1.031-0.345,2.184
				C138.07,292.51,138.301,292.683,138.578,292.89z M129.365,289.636c0.761-0.18,1.335-0.609,1.768-1.245
				c-0.056-1.007-1.542-1.448-2.398-1.064c-0.088,0.375-0.182,0.771-0.293,1.238C128.84,288.807,128.822,289.44,129.365,289.636z
				 M141.299,299.212c-0.193,0.099-0.347,0.223-0.462,0.365l0.635,0.579C141.422,299.84,141.359,299.526,141.299,299.212z
				 M122.711,281.495c-0.624,1.214,0.121,1.949,1.351,2.029C125.89,282.433,124.315,280.03,122.711,281.495z M114.506,274.552
				c1.163-0.054,1.48-1.289,0.943-2.004c-0.487-0.11-0.976-0.21-1.467-0.298C113.04,272.805,113.146,274.395,114.506,274.552z
				 M119.078,279.358c0.26,0.392,0.508,0.767,0.737,1.114C123.534,281.356,120.766,275.861,119.078,279.358z M106.717,276.732
				c-0.246-0.529-0.203-1.207-0.798-1.646c-1.072,0.409-2.013,0.387-1.712,1.774C105.318,277.888,105.646,277.866,106.717,276.732z
				 M113.814,278.239c-0.168,0.715-0.309,1.31-0.464,1.976c0.809,0.453,1.443,0.521,1.941-0.333c1.013-0.717,0.142-1.339-0.361-2.02
				C114.47,278.017,114.085,278.147,113.814,278.239z M102.914,274.321c0.278-0.175,0.489-0.46,0.566-0.82
				C103.258,273.752,103.071,274.029,102.914,274.321z M127.507,284.503c-1.322-0.489-1.735-0.284-2.403,0.926
				c0.538,0.651,1.258,1.571,2.131,1.018C127.079,285.803,127.907,285.262,127.507,284.503z M133.69,292.362
				c-0.052-0.622-0.096-1.146-0.136-1.631c-1.204-1.176-1.668-0.004-2.458,0.886C131.714,292.57,132.593,292.512,133.69,292.362z
				 M136.61,293.605c-0.781-0.581-1.675-0.174-2.015,0.548c0.218,0.11,0.436,0.22,0.654,0.33l0.962,0.877
				C136.77,295.056,137.124,294.414,136.61,293.605z M130.226,283.571c0.237-0.567,0.435-1.043,0.627-1.505
				c-0.9-1.019-1.141-1.04-2.42-0.208C128.202,282.865,129.271,283.955,130.226,283.571z M127.755,279.099
				c-0.189-0.388-0.15-0.952-0.778-0.989c-0.721,0.126-1.569,0.721-1.511,1.704c0.343,0.235,0.743,0.509,1.152,0.79
				C127.174,280.21,128.209,279.927,127.755,279.099z M123.863,286.919c-0.613,0.26-0.672,0.248-0.719,0.501
				c-0.065,0.325-0.304,0.501-0.539,0.683c0.622,0.314,1.244,0.628,1.866,0.942C124.842,288.578,124.812,287.758,123.863,286.919z
				 M107.262,273.019c0.205,0.45,0.371,0.818,0.535,1.179c0.491,0.12,0.964-0.058,1.641-0.067
				C109.943,272.303,108.251,271.243,107.262,273.019z M123.024,277.275c0.497,0,0.988,0,1.468,0
				c0.126-0.233,0.224-0.415,0.365-0.674c-0.073-0.228-0.174-0.413-0.289-0.573c-0.402-0.223-0.808-0.44-1.219-0.647
				C122.532,275.403,121.93,276.197,123.024,277.275z M127.509,290.578c-0.074-0.062-0.163-0.105-0.265-0.134
				C127.333,290.488,127.421,290.533,127.509,290.578z M120.323,274.311c0.122-0.037,0.264-0.081,0.394-0.121
				c-0.289-0.116-0.581-0.224-0.874-0.333C119.971,274.008,120.127,274.16,120.323,274.311z"/>
			<g>
				<path style="fill:#421B36;" d="M130.746,366.402c1.143-4.668,1.187-9.446,2.722-14.064c1.511-4.546,3.719-8.811,6.353-12.804
					c5.345-8.104,12.443-14.509,18.933-21.627c0.828-0.908-0.436-2.17-1.347-1.347c-7.581,6.85-14.866,14.797-20.196,23.553
					c-4.345,7.137-9.454,17.759-7.105,26.289C130.191,366.712,130.667,366.724,130.746,366.402L130.746,366.402z"/>
			</g>
			<g>
				<path style="fill:#421B36;" d="M172.777,191.149c7.16-4.101,15.09-6.892,23.079-8.814c0.711-0.171,0.58-1.387-0.177-1.305
					c-8.384,0.908-16.005,5.625-22.977,9.991C172.622,191.072,172.694,191.197,172.777,191.149L172.777,191.149z"/>
			</g>
			<g>
				<path style="fill:#421B36;" d="M174.232,272.125c0.251-18.188-4.569-35.776-13.646-51.534c-0.555-0.963-2.048-0.094-1.492,0.872
					c8.955,15.548,13.885,32.761,14.975,50.662C174.076,272.229,174.231,272.231,174.232,272.125L174.232,272.125z"/>
			</g>
			<g>
				<path style="fill:#421B36;" d="M156.082,215.942c0.883,0,0.885-1.373,0-1.373C155.199,214.569,155.197,215.942,156.082,215.942
					L156.082,215.942z"/>
			</g>
			<g>
				<path style="fill:#421B36;" d="M140.908,299.46c-8.978-9.128-19.994-15.396-32.153-19.262c-1.18-0.375-1.684,1.475-0.51,1.851
					c11.881,3.805,22.538,10.034,32.183,17.891C140.76,300.211,141.221,299.778,140.908,299.46L140.908,299.46z"/>
			</g>
			<g>
				<path style="fill:#421B36;" d="M145.833,291.885c-6.775-6.14-14.022-11.234-22.152-15.451c-1.079-0.56-2.037,1.08-0.954,1.632
					c7.926,4.038,15.504,8.901,22.417,14.509C145.621,292.961,146.306,292.314,145.833,291.885L145.833,291.885z"/>
			</g>
			<path style="fill:#A0D2F4;" d="M128.155,229.719c0,0,9.484,15.625,11.587,15.242c2.103-0.383,9.168-3.723,8.554-6.2
				c-0.614-2.477-7.718-16.489-11.034-15.706C133.945,223.839,127.894,228.521,128.155,229.719z"/>
		</g>
	</g>
</g>
</svg>
